<?xml version="1.0" encoding="utf-8"?>
<!-- Generator: Adobe Illustrator 17.0.0, SVG Export Plug-In . SVG Version: 6.00 Build 0)  -->
<!DOCTYPE svg PUBLIC "-//W3C//DTD SVG 1.1//EN" "http://www.w3.org/Graphics/SVG/1.1/DTD/svg11.dtd">
<svg version="1.1" id="Layer_2" xmlns="http://www.w3.org/2000/svg" xmlns:xlink="http://www.w3.org/1999/xlink" x="0px" y="0px"
	 width="256px" height="238px" viewBox="0 0 256 238" enable-background="new 0 0 256 238" xml:space="preserve">
<path fill="#29ABE2" stroke="#000000" d="M53.2,184.1c-4.3-22.4-3.2-40.9-3.2-40.9c0.2-11.6-1.3-14.9-1.6-15.5l23.6-9.2
	c1.8,1.9,2.3-1.3,1.6-3.9l23.7-13.3c0.7,4.6,5.8,3.1,5.7-2.7h27c0,3.2,6.5,10.6,8.2,5.7v79.9H53.2z"/>
<path fill="#0071BC" stroke="#000000" d="M152.5,218.3c-5.5,4.6-6.6,7-6.6,7c-7.4,13.7-29.1,7-29.1,7c-8.9-5.3-16.9-1.5-16.9-1.5
	c-9.2,5.2-19.2,3.5-19.2,3.5c-20.9-0.8-21-23-21-23c-0.7-6.4-3.1-13.8-3.1-13.8c-1.3-4.6-2.4-9.1-3.2-13.5
	C53.1,173.6,75,167,89.9,165.9c14.4-1.1,35-6.8,38.4-15.3L152.5,218.3z"/>
<path fill="#7E9B18" stroke="#000000" d="M128.3,150.6c2.9-15.5,7.2-36.9,9.8-46.4c0,0,0,0,0-0.1c12.3-39.2,11.3-67.9,11.3-67.9
	C150.2,13,160.3,14,160.3,14c8.8-1.9,10,16.1,10,16.1c3.9,48.3-4.4,77.5-4.4,77.5c-9.9,33.1-7.8,57.6-7.8,57.6
	c1.5,5,3.6,7.5,7.5,6.6c20.8-4.6,26.8-7.6,34.4-9.3c20.4-4.7,29.5,5.3,29.5,5.3c6.5,7.3-4.8,12.5-4.8,12.5
	c-26.1,7.7-32,9.1-40.8,14.2c-11.3,6.6-16.9,13-26.6,20c-1.9,1.4-3.5,2.6-4.8,3.7c0,0,0,0,0,0c-0.8,0.3-42.5,14.5-27.5-50
	C125,168.3,126.4,160.7,128.3,150.6z"/>
<path fill="#FCEE21" stroke="#000000" d="M130,98.6c0,6.3-4.1,7.5-14.2,8.2c-10.1,0.7-12.8-5.6-12.7-8.2
	c-0.2-11.3,2.7-78.7,2.7-78.7c0.8-19.7,11.1-16.7,11.1-16.7c10.3-0.1,9.4,18.4,9.4,18.4C128.5,38.4,130,98.6,130,98.6z"/>
<path fill="#FBB03B" stroke="#000000" d="M73.6,114.5c-6.5-29.9-6.4-84.6-6.4-84.6c0.7-16.4,9.4-14.5,9.4-14.5
	c8-0.4,9.3,12.5,9.3,12.5c0,11,11.3,73.4,11.3,73.4c0.6,3.4,2.7,6.9-6,13C81.8,121,74.5,118.2,73.6,114.5z"/>
<path fill="#FF0000" stroke="#000000" d="M48.4,127.7C41,114.8,36.2,97.4,36.2,97.4c-6.7-20.2-6.5-29.9-6.5-29.9
	c-1.3-18.1,5.9-18.7,5.9-18.7C47.4,46.2,50,71.1,50,71.1c1.4,25,19.6,44.9,22,47.3c1.9,2-0.8,5.3-0.8,5.3s-2.6,3.8-11.3,6
	C51.8,131.8,48.7,128.3,48.4,127.7z"/>
<g>
</g>
<g>
</g>
<g>
</g>
<g>
</g>
<g>
</g>
<g>
</g>
<g>
</g>
<g>
</g>
<g>
</g>
<g>
</g>
<g>
</g>
<g>
</g>
<g>
</g>
<g>
</g>
<g>
</g>
</svg>
