<svg xmlns="http://www.w3.org/2000/svg" width="283.5" height="283.5" viewBox="0 0 283.5 283.5"><path fill-rule="evenodd" clip-rule="evenodd" fill="#7F9B3D" d="M252.6 65.9c0 .3-.4.4-.4.8-.3 0-.4-.4-.8-.4.1-.3.4-.4.4-.8.4.1.5.4.8.4zm-1.8-5.8c-.7.8-1.7.6-2.6.3.1-.5.5-.7.3-1.5 1-.6 2.6-.6 2.3 1.2zm-18.1 89.2c.2 1.2-1.4 2-2.5 1.5 0-1.1 1.3-2.1 2.5-1.5zm-1.9 13.1c0 .2 0 .3.1.5-.6 0-.4.4-.9.1 0-.2 0-.3-.1-.5.4-.4.2 0 .9-.1zm-2.6-14.5c0 .2 0 .3.1.5-.2 0-.2.1-.2.3-.2 0-.3 0-.5.1 0-.2-.1-.2-.3-.2 0-.2 0-.3-.1-.5.2 0 .2-.1.2-.3.2 0 .3 0 .5-.1 0 .2.2.2.3.2zm-2.2 29.9c.5.9-1 .2-.9.8-.6-.3-1.4-.3-1.3-1.3.4-.1.5.1.5.4.7 0 1.4-.2 1.7.1zm-1.4 2.1l.1 1.2c-1 .3-.9-1.2-.1-1.2zm-14.1-111.7c-.2.3-.2.7-.1 1.2-1.2.6-2 .1-2.3-1.2.7-.5 1.8-.4 2.4 0zm10.8 105.8c-.8.9-1.3 2.9-3.1 2.3-.2-1.6 1.3-2 1.6-3.3.9-.2.8.9 1.5 1zm-8-58.7c.1-.5-.6-1.6.3-1.5.5.3.6 1.6-.3 1.5zm-4.9-33.9l.1 1.2c-.7 0-1.1-1.3-.1-1.2zm3.5 46.5c.3.9-1.2 1-1.6.7.2-1 .5-.6 1.6-.7zm-2.3-3.3c-.6 0-.7-.8-.4-1.2.6 0 .7.8.4 1.2zm-5.4-41.8c.3 1.1-.3 1.5-1.3 1.6-.2-1.1.7-1.3 1.3-1.6zm9.1 88.3c-1.5-.1-2 .1-3.3.1.7-1 2.6.1 2.4-1.7.9-.2 1.3.9.9 1.6zm-5.1-28.9c.1.6.2 1.1-.1 1.4-.4-.2-1-1.4.1-1.4zm1.3 25c-.5-.4 0-.7.1-1.2.7-.1.8 1.3-.1 1.2zm-13.4-118.5c-.5.9-2.4 1.3-3.3.6l-.3-2.8c.5-.4 1.3-.7 1.8-1.2 1.2.5 1.9 1 1.8 3.4zm.9 29.4c-.6-.4-.2-1 .1-1.4.5.1.9 1.4-.1 1.4zm-3.4-4.9c-1.2.4-1.4-.4-1.8-1 .2-.6.9-.9 1.5-1.1.7.5.6 1.3.3 2.1zm-10.3-21.4c-.8 0-.8.5-1.6.4-.8 0-.7 1.2-1.4.6-.3-.3-.2-.9.1-1.2-1.1-.4-1.8-1.4-2.4-2.4.3-1.4-.3-2.7-1.1-3.5 0-1.4.6-2.2.3-3.9.5-.6 1-1.2 1.2-2-.1-.7-1.1-.5-1.5-.8-.2-.1-.2-.5-.3-.7-.2-.2-.6-.4-.8-.9-.2-1.6-.4-3.2-.5-4.7.9-.6 1.4-.5 2.6-.5 1 0 1.1 1.1 2.5.7 1 .8 1.6 2.1 2.5 3.1 1-.5 1.7-.3 2.8-.3 1.2.9 2.4 1.9 3.4 3 .6 1.6.2 3.2.6 5.2-.7 1-1.3 2-1.8 3.1-1.3.1-1.8.9-3 1.1-1.1.8-1.1 2.5-1.6 3.7zm3.5-.6l.1.7c-.3.4-1.3.5-1.7.2.2-.6 1.1-1.2 1.6-.9zm10.8 106.1c.3 1-.1 1.5-1 1.5.3-.5.2-1.4 1-1.5zm-16.4-96.6l1.4-.2c2.1 2-2.4 2.8-1.4.2zm-1.6-5.8c-.1 1-1.2 1.3-2.2 1.7-.4-.3-.3-1.4-.5-2.1 1.1-.1 1.7.3 2.7.4zm12.6 115.9c-.9.3-1-1.2-.7-1.6.8.1.9.8.7 1.6zm-22.1-110.8c-.7-1-.5-2.9.3-3.4 2.5-.3 1.8 3.6-.3 3.4zm-1.6-18.3c-.3.4-1.7.6-2.1.2-.8-1.7 2.6-2.3 2.1-.2zm2.4 133.1c-1.1-.1-1.6-.9-1.9-1.9.4-.9 1.9.1 2-1.2 1.6.8-.1 1.8-.1 3.1zm-8.6 7c-.4-.6.5-.5.6-1 .1-.3-.2-.7-.1-.9.3-.6 1.3-1 1-2 1.7.3 3.4 1.5 3 3.5-.8-.3-.9 1-1.3 1.1-.3.1-.6-.5-1-.6-.8-.3-1.5.4-2.2-.1zm-10.9-123.6c.6.7-.3 1.9-.4 2.7-.7 0-.5-1.1-.7-1.8.2-.5 1.5 0 1.1-.9zm-1.5 7.6c-.7.1-.7-1.3-.4-1.6.7-.1.7 1.3.4 1.6zm-1.1-5.6c.3.6-.3.6-.1 1.2-1.2.4-1.5-.3-2-.7.3-1 1.3-.8 2.1-.5zm12.7 116.9c-.3.4-.9.6-.5 1.5-.4.2-.8.5-1.4.6-.2-.5-.7-1.6-.2-2.1 1 .5 1.5-.1 2.1 0zm-19.5-130.5c.1-1.6-1.1-1.6-1.1-3.2l1.4-.2c.5 1.4 1.7 2.9-.3 3.4zm-5.4 5.4c0 .4-.3.6-.9.6l-.1-.7c.5-.2.7 0 1 .1zm-1.9 6.4c-.3.6-1.3.7-2.3.7-.5-.8-.6-1.7-.3-2.6.7 0 1.7-.4 2.2 0 0 .8.5 1 .4 1.9zm10.2 117.6c-.9.3-1-1-.1-.9 0 .6.4.4.1.9zm-17.6-124.2c-.9-.8-.9-3.2-.5-4.3l2.8-.3c.2.6.9.6 1.1 1.3.4.5-.2.6-.4 1-.4 1-1 2.3-3 2.3zm3.2 3.3c-.6 0-1-.2-1.5-.3.2-.6.6-.9 1.3-1.1.2.5.6.9.2 1.4zm-5.3 6.1c-.3-1.5 0-2.4.6-3.2 1-.1 2-.2 3.1-.3.9.6 2.5 1.2 2.4 2.6 0 .7-.4.5-.6 1.3-.6.4-1 .9-1.5 1.4-2.3.6-2.7-1.2-4-1.8zm16.8 121.1c-.8.1-.9-.7-1.5-.8l-.2-1.4c0-.4.4-.7.6-1.3.3-.7.2-1.2.8-1.5.8-.2 1.2.1 1.7.3 0 .5.2 1 .2 1.4-.1.6-.4.5-.6 1-.1.4.1 1-.1 1.4-.2.6-.6.6-.9.9zm2.8 7.6c-.7-.1-.6.4-1.2.4-.4-.4-.7-.7-.7-1.6.2-.3.8-.4 1.4-.4.4.3.4 1 .5 1.6zm-1.6-5.5c-.1 1-.5 1.8-2 1.7l-.2-1.4c.4-.5 1.8-.6 2.2-.3zm-1.2 13c0 1.1-1.1 1.3-2 1.7-.1-.6-.5-.6-.4-1.4 1-.6 1.4-.6 2.4-.3zm-23.8-162.3c.3 1.2-.3 1.6-1.5 1.6-.1-.6-.5-.8-.4-1.6.7-.1 1.6-.3 1.9 0zm-3.4 5.4c-.2.4-.5.8-.6 1.3-.6.1-.7-1.1-.4-1.4.5-.2.6.1 1 .1zm-.9-1.1c-.6.1-1.1-2.3-.3-2.4.5.4.6 1.9.3 2.4zm.4 9.6c-.6.1-1 0-1-.6.3 0 .4-.1.4-.3.4 0 .6.3.6.9zm3.8 36.9c-.9-.1-.2-.7-.4-1.4.7-.1.7 1 .4 1.4zm-4-19.2c-.1.5-.4.8-.6 1.3-.4-.2-.6-.5-.6-1.1.3-.4.8-.5 1.2-.2zm-3.2-22.4c0 1-.3 1.7-.4 2.4l-1.7.2c-.7.2-.9.8-1.6 1.1l-1.2.1c-.9.3-.5.6-1.7.2-.3-.4-.7-.5-.6-1.4-.2-.6-1-.4-.9-1.3.1-1.1.9-1.6 1.9-1.9.6-.1.3-.9 1.1-.8.9.2 1.6.7 2.1 1.4 1.2.4 1.9-.4 3 0zm-.7 9.4c.4.9.7 2 1.3 2.7-.2 3.6 2.3 6.1 1 8.7-1.2.5-1.7 1.7-2.6 2.4-2.4.7-4.7.5-6.5-.2-.2-1.1-1.1-1.7-1.3-2.7-.2-1.3.7-2.2.6-3.7.8-.2.5-1.2.8-1.8.3-.6 1.2-.9.8-1.8 1.6-.7 2.2-2.3 3.2-3.5.9.1 1.8 0 2.7-.1zm0-2.6c-1.1.3-1.8 0-1.8-1.2.8-.9 2.1-.3 1.8 1.2zm1.3 33.4c0 .3-.4.4-.4.8-.3-.1-.5-.5-.6-.9.5-.2.7 0 1 .1zm-.7-4l-.7.1c-.2-.5.1-.6.1-1 .5 0 .6.3.6.9zm-3.3-4.2c-.8-.2-.7-1.4-1.6-1.5 0-.7.9-.5 1.6-.7.5 1 .7 1.4 0 2.2zm-.8 7.7c-.1.5-1 .8-1.4.4.1-.2.2-.4.2-.7.6-.3.5.6 1.2.3zm-7-17.4c-.1.6-1.5 1-1.4-.1.5-.1 1.1-.1 1.4.1zm2.2 43.8c-1.1-.1-1.9-1.2-1.5-2.5 2.2-.4 2.8 1.5 1.5 2.5zm-3.1-4.2c-1-.1-.7-1.6-1.6-1.7.2-.6 1-.6 1.8-.7 1.1.6 1 2-.2 2.4zm-10.4-55.3c-1.1.2-1.6-.2-1.6-1.3.3-.2.6-.4 1.2-.4.3.3.3 1 .4 1.7zm-4.5 2.4c-1.3.2-2.2-.1-2.9-.6-.6-1-.5-2.7-.2-3.6.5 0 1.2-.2 1.9 0l.6.7c.2.1.6 0 .7.2.2.2.2.5.3.7.6.7.9 1.8-.4 2.6zm19 167.4c-1.9.3-2.6-.9-3.8-1.5.1-.8.1-1.6.5-2.2.8-.2 1.5-.5 2.6-.5 1.2 1.1.5 2.3.7 4.2zm-4.7 2.9l.8-1.3 1.5.6c.3 1.6-1.6 1.4-2.3.7zm-16.3-132c-.4-.3-.4-1.4.3-1.5.1.8.8 1.3-.3 1.5zm2.6 58.3c-.1 1.2-3 1.1-4 .9-.3-1.4 1-1.7 2.2-1.7.9.1 1.3.9 1.8.8zm-4-3.6c-1 .9-2.4.6-3.1-.1-.4-1.7 0-2.7.8-3.4 2.2-.3 3.1 1.7 2.3 3.5zm0 10.8c-.5-.4-.2-.9-.2-1.4.7.1 1.4 1.3.2 1.4zm180.8-23.7c.3 1.3 1.8 1.1 1.8 2.9 1.2-.4 2.4-1 2.1-2.6-1.7.4-2.7 0-3.9-.3zm-15.4-83c0 .3-.3.5-.1 1l.7-.1c0-.6-.2-.9-.6-.9zm7.5 84.9c.2.9.7 1.3 1.6 1.3.8-1.2-.7-2.4-1.6-1.3zm-10.3-54c-.7-.1-1.1-.5-1.7-.5-.4.5.1 1.7-.5 2l-.9.1c.2.8-1.1.4-1.1 1.1 1.3 0 2.5.1 4.3 0 .5 1.2-.1 1.7.3 2.4 1 .4.9-.5 1.6-.9 1-.2 1.6-.7 1.7-1.6-.3-1.1-1.9-.6-2.5-.7-.5-1.6 2.2-.7 2.2-1.9-1.1-.7-1.9 0-3.4 0zm3 14.3c-.7.1-1.4.2-2.1.2-.3-.9-1.1-1.2-1.8-1.5-.3.8-.3 1.8-.9 2.3l.2 1.7c-.2.6-1.5.9-.8 1.5 2.4-.6 2.8-2.8 5.4-3.2.7 0 .4 1.1 1.3.8 0-1.2-1.3-.7-1.3-1.8zm.1 12c-.2.3-.2.7-.1 1.2.5 0 .9-.2.9-.6-.4 0-.2-.8-.8-.6zm-.5 3.6l-1 2c.9.7 2.3-1.6 1-2zm-2.5 3.4c0 .6.1 1.1.4 1.4.9-.2 1.3-.8 1.5-1.6-.4-.8-1.5-.2-1.9.2zm-.1-14.1c-.7-.1-.6.4-1.2.4-.1 1.1.4 1.5 1.3 1.3.3-.4.2-1.4-.1-1.7zm-8.7-47.4c-1.3.5-2.3 1.3-2 3.1-.3.3-1 .3-.8 1.1.2 1 1.1 1.1 1.4 2 .2.8 0 1.9.5 2.3l1.2-.1c-.1-.9-.4-2.1.2-2.4l1 .6c.6-.1.3.9 1 .6.5-.7-.2-1.6-.5-2.1.4-.5.4-1.3.5-2-1.5-.2-1.8-1.9-2.5-3.1zm3.5 26.9c-.1.5-.7.5-.1 1 .8.1.8-1 .1-1zm-2.6 17.3c-.1 1-.2 2.3 1 2.3 1-.1.9-1 .7-2 .3-.4.5-.9.6-1.5-1.2.1-1.3 1-2.3 1.2zm2.9 26c.7 1 2.7.4 2.3-1.2-1.1.2-2.4.2-2.3 1.2zm-22.5-83.9c0 .9 1 .5 1.1 1.3.9-.2 1-1.1 1.5-1.6-.5-.3-2.2-.1-2.6.3zm-31.8 104.3c-.5-.6-.5-1-1.5-.6 0 1.4 1.2 1.4 2.5 1.2.6.1.9 1.2 1.5.6-.5-1.4.7-1.3.4-2.4-1.3-1-2 .5-2.9 1.2zm-8.4 3.8c0-.3.3-.5.1-1-1.3-.1-1.8-1.4-2.8-1.8-.7.7.3 2.1.2 3.6 1.6-.3 2.4.6 3.3 1.3.9-.7-.3-1.8-.8-2.1zm-5 25.9c.5.4 1.6 0 1.9-.4-1.1.1-1.6-.7-1.9.4zm-14.8-5.7c-.7.3-1.4 1.3-1 1.8.6 0 1.1-.1 1.4-.4 0-.6-.1-1.2-.4-1.4zm-6.6-16.8c-.8-.6-1.2-1.7-2.8-1.4-.3 2.4 1.8 4 1.5 7.3.2 1 0 2.3 1.2 2 1-.2.5-1.3.5-2.2 0-1-.3-2.1-.3-2.8.6 0 .5-.6.6-.8.5-.6 1.4-.5 1.3-1.3-.5-.6-1.1-.9-2-.8zm-10.8-79.9c-.5-.6-1-1.3-1.6-1.7l-.4 1c.4.2 1.1.1 1.1.8.1 1.1-1 1.4-.4 2.9.6-.1.7.3 1.4.1 0-.9.4-1.4 1.5-1.4 0-1.3-1.2-1-1.6-1.7zm1.9 68.9c0-1.2-1.1-1.6-1.5-2.5l-.2-1.7c.6-.5 1.6-1.4 1.2-2.1-.2-.5-1.3.1-1.5-.3-.6-.7-.1-1.7-.5-2.1-1.3.3.1 1.5-.4 2.4-.5.4-1.4.4-1.3 1.3-.2.9.7.6.6 1.4.3 2.4.2 5.2 2.3 5.3.9-.3 1.3-.8 1.3-1.7zm-.6 16.4c-.6 0-.7.4-.9.8-.6.1-1.2.2-1.1.8.5.3 1.2.3 1.9.3.5-.4.6-1.5.1-1.9zm-4.3-2.4c-1.1-.2-2.4-.1-3.4-.3-.5 1.3.2 2.8 1.1 3.2-.4.4-1 .6-.8 1.5.2.6 1.1.5 1.1 1.3 1-.3 1.6 0 2.4 0 .4-1.8.4-3.9-.4-5.7zm-1.3 21c.3 0 .4.3.8.4.7-.7-.8-1.5-.8-.4zm86-66.1c.1.9-.7 1.7-1.3 1.3 0-.4.3-.6.9-.6-.1-.4 0-.7.4-.7zm-45.2-106.8c.4 2.6-.2 4.2-1.1 5.5-3 .8-2.2-2.2-4.4-2.2.7-2.2 2.9-2.9 5.5-3.3zm-59.7 6.6v-2.2c.9.2 1-.4 1.1-1.1h2.2c-.2.9.4 1 1.1 1.1v2.2c-.9-.2-1 .4-1.1 1.1h-2.2c.2-.9-.4-1-1.1-1.1zm1.1 3.3c5.6 2.4-4.8 5.7-1.1 9.9-5-1.8.3-7.1 1.1-9.9zm55.3 3.4c1.8 1.5 2.8 3.8 3.3 6.6-1.6 1.7-5.7 1-8.8 1.1-1.2-8 5-1.7 5.5-7.7zm-114.9 5.5c2.6 1.4 4.5 3.6 4.4 7.7-3.5-.6-4-4.1-4.4-7.7zm55.2 33.1h3.3c.9 1.3 1.5 3 1.1 5.5-4.1.8-4.9-1.7-4.4-5.5zm64.1 4.5c2.1-3.1 7.1.2 8.8 1.1-2.5 3.5-5.8-1.5-8.8-1.1zm-118.2 13.2c-2.9.3-4.8-.4-4.4-3.3 1.5-1.6 5.2-.6 4.4 3.3zm109.4 45.3c3.1-.5 1 4.1 3.3 4.4.2 2.4-3.9.5-5.5 1.1-1-3.5 1.7-3.4 2.2-5.5zm59.6 36.5c.5 3.5-2.4 3.5-5.5 3.3v-3.3c1.4-1.4 4.1-1.4 5.5 0zm-37.6 8.8c.2 3.2.1 6-3.3 5.5-.9-1-1.2-2.5-1.1-4.4 2 .1 2.4-1.3 4.4-1.1zm-99.4 29.8c-.3 4.9-4.5 5.8-5.5 9.9-2.2-1.5-3.4-4-6.6-4.4-.5-1.8 4.1-3.7 4.4-1.1 3.2-.8 2.8-5.2 7.7-4.4zm-4.4 44.2c3.2-.6-1.8-1.6-2.2-2.2 1-3.7 2.5-1 4.4 0 2.5-.5 0-5.9 2.2-6.6-7.2-2.2-.2-11-8.8-8.8-.3-1.8 1-1.9 1.1-3.3-2-.5-12.4 1.6-9.9-6.6 2.8-2 5.8-3.8 11-3.3.3 2.6 2.2 4.6 0 6.6 2 0 6.4-3 7.7 0 1.1 0 .9-1.4 1.1-2.2 2.8 1.7 7.6-.9 8.8 4.4 3.4.8 2.1.8 5.5 0v2.2c5.2.1 11.6-4.7 13.3 1.1.8 3-2.2 2.2-2.2 4.4-3.6-.5-5.8-2.3-7.7-4.4-4.9-1.6-2.9 3.7-6.6 3.3v-4.4c-4.1-1.2-3.6 2.3-5.5 3.3 2.7 3 1 3.9 2.2 8.8-4.7 1.7-.2-5.7-3.3-5.5-2.4 1.5-1.1 6.2-1.1 7.7 0 3.6-3 6.1-3.3 8.8-.3 3.4 2.4 6.6 0 9.9 2.9 1.9 5.2 4.4 5.5 8.8-2.6 2.3-8 .7-8.8-2.2-6.1 2.6-11.7-2.3-12.2-8.8 1.6-4.6 8-4.6 6.6-12.2.9.3 1.1 1.2 2.2 1.2zm78.4-19.9h3.3c-.1 1.6-.2 3.1 1.1 3.3.2 2.4-3.9.5-5.5 1.1-.4-2.2.8-2.9 1.1-4.4zm-85 8.9c3.5.6 4.8 3.3 8.8 3.3-1.8 2.1-8.7 0-8.8-3.3zm98.3 1.1h3.3c.3 3.6 2.2 10.5-2.2 13.3-2.4-1.3-6-1.3-6.6-4.4-.2-5.1 5.5-4.1 5.5-8.9zm-79.6 11c3-.8 2.2 2.2 4.4 2.2-.7 1.5-2.4 2.1-4.4 2.2v-4.4zm-25.4 5.6c1.1 0 .9-1.4 1.1-2.2 2.6.3.6 4.9 0 5.5-3.8.5-6.3-.3-5.5-4.4 1.5-1.5 3.3-.7 4.4 1.1zm66.3-2.3c4.5-.8 1 3.4 1.1 5.5.3 5.4 2.7 13.1 1.1 16.6-2.2-5.6-3.1-16.6-2.2-22.1zm-38.6 12.2c3.2 0 2.6 6.2 1.1 7.7-3.3 0-2.7-6.2-1.1-7.7zm39.7 12.2h3.3c-2.4 2.3 1 3.6-1.1 5.5-2.4-.2-2.3-2.8-2.2-5.5zm-44.2 1.1c1.9 1 2.4 3.4 2.2 6.6-3.9 1-1.5-4.4-2.2-6.6zm15.5 9.9c4.5-1.2 5.5 3.4 3.3 5.5-1.9-1-3.8-2-3.3-5.5zm-43.1-142.5c2.7 1.1-3.5 2.3-4.4 3.3.3 3.3 3.4 3.9 2.2 8.8-6.7 2.7-8.6-1.6-14.4-2.2-1.7-6-3.2-11.1 0-17.7-1.6-2.4-8.1 6-8.8-1.1-3.2.9 1.4 2.8 0 5.5-2.3 1.4-4.2 3.2-5.5 5.5-2.5-1.7-3.3-2.8-3.3-5.5 0-1.9 2.2-3.3 2.2-4.4 0-1.9-3.3-2.3-2.2-4.4-.3-2.5.3-4.2 2.2-4.4-.9-3.1-9.5-2.8-4.4-5.5-.9.2-1-.4-1.1-1.1-2.4 1.3-2.6 4.7-7.7 3.3 0-1.9-.8-2.9-2.2-3.3-1.5-1.3 2.4-3.9 2.2-4.4-.1-.3-3.2-1.8-3.3-1.1.2-1.5 1.6-.2 2.2-1.1l1.1-7.7c2.4.2 3.5-.9 3.3-3.3 2 .2.7 3.7 2.2 4.4.3 3.1 6.2.4 5.5 4.4 1.3-1.7 3.2-2.7 3.3-5.5 2.1.5 2.8 2.4 5.5 2.2 3.3-.2 1.9-9.3-3.3-7.7 1.3-4.4 10.7-3.2 7.7 1.1 3.4-1.1 6.6-2.2 9.9-3.3 3.8.6 5.1 3.7 7.7 5.5-.2-.9.4-1 1.1-1.1-3-.7-1-6.4-4.3-6.7 4.3-.6-1.8-5.2 3.3-5.5.6-5.4-6-3.6-8.8-5.5-2.3.7-.3 5.6-4.4 4.4v-4.4h-6.6l-1.1 4.4c-4.5 1.2-5.5-3.4-3.3-5.5-4-6.5-18 3.9-19.9-4.4 7.7 1.7 15.4.1 23.2 1.1.5.1 1.9 2.1 2.2 2.2 7.7 1.9 15.5-1.2 22.1 0 .7-1.8 5.3.2 4.3-3.4.2-2.4-3.9-.5-5.5-1.1 2.9-2.9-1.8-.9-1.1-4.4-2-.1-2.3 1.4-4.4 1.1 1.3-4.8 0-3.6-1.1-7.7 2.8-2.1 4.3.9 7.7-1.1-1 4.6 3.7 3.7 5.5 5.5 1.9-.3-1.4-3.8 3.3-3.3v3.3c5-.6 9.1-.7 11-4.4.2-.4-2.4-4.8 1.1-5.5-3.5-4.1-7.8-.9-12.2 0-.5-3.9-1.7-6.3 1.1-8.8 0-2.2-3-1.4-2.2-4.4h-5.5c-1-3.8-8.6-1-7.7-6.6 3.9-.3 6.6.7 7.7 3.3 2.4-.2 2.4-2.8 2.2-5.5.9.2 1.1 1.1 2.2 1.1 1.3-.4 2.8-1.9 1.1-2.2.5-2.1 3.2-2 2.2-5.5 2.4.2 3.5-.9 3.3-3.3 1.3.2.9 2 1.1 3.3 3.6-4.3 8.6-.8 12.2-5.5-1.3-1.3-1.3-3.9-1.1-6.6 4-3.2 8.6.4 9.9 3.3 1.5-.2 2.1-4.6 2.2 0 4.4-2.2 3.5-9.8 8.8-11 1 3.9 1.6 11.5-5.5 12.2 4.9 2.1 1.6 1.9 1.1 6.6.1 2.1 3.7.8 3.3 3.3 1.1 0 .9-1.4 1.1-2.2 2.1 2.6-.9 5.9 4.4 6.6-1.7 2-1.2 6.2-3.3 7.7 0 1.1 1.4.9 2.2 1.1-1.2 3.2-3.1 5.7-2.2 11-4 .3-5.4 7-8.8 4.4 2.7-1.5.7-2.2 2.2-3.3 0-3.1-3 2.6-2.2-2.2-3.8-.9-4.7 2.1-6.6 0-3.3 1 2.6 1.7 1.1 4.4-3.9-1.7-.7 3.7-3.3 3.3.9 1.6 3.6 1.6 5.5 2.2 3.6-1.7-5-2-1.1-4.4 4.8.6 2.4 4.1 2.2 7.7 4.8.8-.9-2.2 2.2-2.2l4.4 3.3c0 4.1-.4 8.5 4.4 7.7-2.5-1.7-2.1-2.3-1.1-5.5 3.1 1.3 11.8 1.5 8.8-3.3 1.3 1.7 3.2 2.7 3.3 5.5 1.4-1.5 5.4-.5 5.5-3.3 1.1 3.7 5.9 3.7 11 3.3 1.5-.3.9-2.8 1.1-4.4 2.9-1.8 8 2.1 8.8-3.3 8 6.6 11.6-4.6 19.9-4.4.7 4-2.3 4.3-5.5 4.4-4.5 3.7-11 5.2-18.8 5.5 5 2.7-.9 4.1-2.2 6.6 4.1-1.8 7.3-4.5 14.4-3.3.5 1 1 2 2.2 2.2.4 9.2-8.6 9.1-9.9 16.6-2.7-.5-2.4 2-5.5 1.1-.9 3.4 2.7 3.5 3.3 4.4.2.4-2.1 3 1.1 2.2-.5 2.3.8 2.9 1.1 4.4-.8 3.5.1 4.5-1.1 5.5.7 1.7 1.8 3.6 3.3 5.5.8.9 1.3.3 2.2 1.1.5.4 1.3 5.1 2.2 2.2 1.4 2.6 1.8 6.3 3.3 8.8-.1 3.8 5.7 1.7 5.5 5.5 1.3.2 2-.2 2.2-1.1 1.6.5-.1 1 0 2.2h7.7c.5 3.5-2.8 3.1-4.4 4.4 3 5-1.8 10.4-3.3 14.4.9 3.5 6.4 2.5 6.6 6.6-1.4 2.1-5.8-2.2-6.6 2.2-1.1 0-.9-1.4-1.1-2.2-2.6-1-2.7 2.1-4.4 3.3-1.3.9-4.1-.7-3.3 2.2-4.5-2.9-8.5 4-12.2-1.1-3 0-2.6 5.2-1.1 6.6 3.4-5.9 11-.7 17.7-3.3-2.5 2.6 5.1 11.4-3.3 11 .5 3.9 6.7 3.1 9.9 3.3 4.1.2 8.4-2.5 11.1-1.1 1.6-.5-.4-1.4 0-3.3 1.9-.4 2.1.9 2.2 2.2 4.2-1.3 7.3-5.8 12.2-3.3 2-2.8 4.7-5.6 8.8-3.3-4 6.1 4.1 5 3.3 11.1-2.3.5-2.9-.8-4.4-1.1-2.2 2.3-3.7 4.5-2.2 7.7-2.7 1.7-4.1 4.7-4.4 8.8-.9-.2-1.1-1.1-2.2-1.1-2.4 3.1-3 13.9-2.2 16.6-.6 2.5-1.7-1.3-3.3 1.1v6.6c-2.7 3-6.2 4.5-11 3.3-3.8-.9-6.4 1.2-6.6-2.2-.9.6-1.8 1.2-3.3 1.1.5-1 1-2 2.2-2.2-3.1-2.2-1.4-5.1-4.4-5.5-.2-1.5 6.4-1.4 2.2-3.3 1-1.9 3.9-2 5.5-3.3-2.5-6.2 6.8-6.3 4.4-8.8 3.3-1.7 9.3-.5 9.9 5.5 7.3.6-.3-10.1 4.4-9.9-4.4-9.6-16.2-9.7-27.6-9.9-2.3 1.4-1.2 6.2-4.4 6.6 0 4 7.8.3 6.6 5.5-5.9-3.7-7.4-2.6-15.5-2.2 1.2 3.4.7 4-2.2 2.2-1.1.7-1.1 2.5-3.3 2.2v4.4c-3.9 1.1-2 1.9-3.3 4.4-3.6-1.6-3.2.3-5.5 2.2-4.3-1.9-4.7-2.8-8.8-3.3-2 1.3-3.7 2.9-5.5 4.4-2.9-1.9-3.7-4.5-6.6-1.1.6 2.5 1.7-1.3 3.3 1.1.3 1.3-3.2 3.8-3.3 1.1-1.9 2.2-5.1 3-7.7 4.4-2.1-1.6-3.2-4.2-6.6-4.4-.1-4-1.7-6.4-2.2-9.9-1.3.9-3 1.5-5.5 1.1-2.1-1.5-1.2-2.7-1.1-4.4.1-2.2-4.8-4.6 0-7.7.4-1.9-.9-2.1-2.2-2.2-.2-2.7.6-4.6 2.2-5.5-1.1-2-4.5.6-6.6-1.1-1.3 1.3-2 8.7-7.7 8.8-.6-1.6 1.3-5.7-1.1-5.5 1.2-1.3 3.2-2 2.2-5.5-2 2.8-1.4 1.2-5.5 1.1 1.7-1.6 4.8-1.8 7.7-2.2-3.1-2.9 2.8-6.1 0-9.9-.2-2.4 3.9-.5 5.5-1.1.8-3-2.3-2.1-3.3-3.3-3.7-.4-1.7 4.9-6.6 3.3.1-1.8-.5-4.2 1.1-4.4-.7-1.1-7.1.7-6.6-4.4-4 .7-5.3-1.3-7.7-2.2.9-2.1 1.8-4 2.2-6.6 2.3.9 6.9-1 3.3-2.2 3.4-.9 6.7-5.8 9.9-3.3.3-2.5-.3-4.2-2.2-4.4-2.5-.6-1.6 2.1-3.3 2.2-3.7-2.4-4.9-.5-8.8-2.2.3-1.5 2.8-.9 4.4-1.1-2.3-2.7-1.6-2.4-1.1-6.6l5.5-3.3c-2.3-2.4-3.3.9-4.4 1.1-1.9.3.5-2 0-2.2-2.2-.9-3.5 3.6-6.6 3.3v5.5c.8-.4 1-1.3 2.1-1.3zm33.2 63c-2-2.1-3.7.9-5.5 2.2 1.5 1.6 5.7 1 5.5-2.2zm-13.3-132.6c-.1.7-.2 1.3-1.1 1.1-.7.1-1.3.2-1.1 1.1 1.6.2 1 2.7 1.1 4.4 2 .1 2.6-1.1 2.2-3.3 2.6-.4 5.2-.7 4.4-4.4h-3.3c.2 4.6-.6 2.6-2.2 1.1zm42 13.2c.7.3 4.3 2.8 4.4 0-5.3-.3 1.7-3.1 2.2-4.4-1.9.3-5.5-3.1-6.6 0 3.3.7-1.1 2.4 0 4.4zm-56.4 2.2c.7.3 4.3 2.7 4.4 0-1.3-.2-.7-1.2 0-2.2-5.2-1.1-6.3 1.8-8.8 3.3.6 5.6-5.1 10.8 0 14.4.2-6.1 10.1-7.7 4.4-13.3 0 .6-.9 1.3-1.1 0 .9-.2 1.3-.9 1.1-2.2zm70.7 23.2c-1.6 5-.6 9.8 4.4 11.1-.6-3.9 1-9.5-4.4-11.1zm11.1 16.6c0 2.3 4.4 5.7 5.5 3.3l-3.3-4.4c-.2.9-.9 1.3-2.2 1.1zm-15.5 54.2c-.1-.7-.2-1.3-1.1-1.1-.5 3.5-5.7 2.4-5.5 6.6 7.2-.7 10.7.8 14.4-2.2-.6-4.5-.6-9.7-6.6-8.8-2.9 1.3 1 5.3-1.2 5.5zm-24.3 11c1.7-.2 4.1.4 4.4-1.1-3.5-1.8 2.3-3.5 2.2-5.5-3.2-.1-7.2.6-8.8-1.1 1.8 3.9 4.5 4 2.2 7.7zm19.9 5.5c-2.4-2-.7-8.1-3.3-9.9-1.9 2.4-.2 8.3 1.1 11.1.3-2.1 1.8.6 2.2-1.2zm42-177.9c1.2-.6 8.4-2 8.8 3.3 4-.7 5.9.7 7.7 2.2-.9 1.3-1.5 3-1.1 5.5-1.3.9-3 1.5-5.5 1.1.4 2.4 3.4 4.5 0 2.2-1.2 1.8-6.6 5.1-8.8 2.2-1.8 1.5-2.7 3.9-6.6 3.3-.7-4 2.3-4.3 5.5-4.4-.2-1.3.2-2 1.1-2.2-2.9-4.3-.2-10-1.1-13.2zm-57.5 43.1c.2-1.3 1.1-.6 1.1 0 1.5-.3.9-2.8 1.1-4.4h4.4c1.8 2.2-.1 1.4 0 4.4 0 1.1 1.4.9 2.2 1.1-1 1.9-3.5 2.4-6.6 2.2-.9-.8-.6-3-2.2-3.3zm-87.2 36.5c-.9-1-1.2-2.5-1.1-4.4 2.8-1.4 3.5.6 4.4-1.1 2.9 1 0 5.1-2.2 5.5-.8.1-2.1 2.2-2.2 2.2-2 .1-2.3-3.6-4.4-2.2 1.7-3.7 3.4 3.5 5.5 0zm138.1 16.6c-.3-4-.3-7.6 4.4-6.6-.5-2.3.8-2.9 1.1-4.4 1.3.2 2-.2 2.2-1.1 5.2.7 10.9.9 14.4 3.3.2 4.3 0 8.1-1.1 11.1-3.1 2.1-9.2 1.1-11 4.4-2.8-.3 1.5-1.9 0-4.4-1.6-4.3-6.8.9-10-2.3zm36.4 77.3c-1.9-.3-2.5-1.9-2.2-4.4 2.4-.2 3.5.9 3.3 3.3 1.5-1.1 3.3-1.8 4.4-3.3 3.2 1 1.2 1.7 1.1 4.4-4.1.1-5-1.7-6.6 0zm-35.3 8.8c1.6-3.3 4.3 1.5 7.7 0 .3 2.6-3.2 1.2-3.3 3.3-.8 2.1-1.7-1.2 0-1.1-1-3.7-2.5-.1-4.4-2.2zm-12.2 47.6c-.3 1.5-.3 7-1.1 11-4.1.4-2-5.3-5.5-5.5 3.1-2.4-2-6 2.2-6.6-3-4-12.2-1.8-11-9.9-.9.6-1.8 1.2-3.3 1.1 2.5-2-.8-4.6-1.1-6.6-.3-2.5 1.3-4.8 0-6.6 2.9-1.2 3.7-1 6.6 1.1-.4-1.4-1.9-1.7-2.2-3.3.4-2.6 1.7-4.1 1.1-7.7 3-2.9 7-4.8 9.9-7.7 2.4-.5 2.1 1.6 2.2 3.3 1.6-1.3 2.8-1.3 4.4 0 .2-1.1 4.8-3 2.2-3.3 1.2-3.5 3.2 1.1 2.2 3.3l-6.6 2.2c0 2.6 1.9 3.3 1.1 6.6-4.4.6-4.7 6.6-5.5 7.7.3 1.9 1.9 2.5 4.4 2.2-2.7 2-1.6 1.8 0 4.4 3.3-2.8 4.4-1 7.7-3.3.8 3.7-1.9 4-4.4 4.4.2 4.9 3.2 7.1 6.6 8.8-1.6 8.3 6.7 13.8 0 17.7-1.5-1.1-2.2-3-4.4-3.3-2.6-.4.6 5-3.3 3.3 3.3-5.3.5-8.8-2.2-13.3z"/></svg>