<svg xmlns="http://www.w3.org/2000/svg" width="283.5" height="283.5" viewBox="0 0 283.5 283.5"><path d="M66.8.8c.2 1.1 1.2 1.3 1.2 2.5-1-.3-.7.8-1.2 1.2-1.7-.2-3.3-4 0-3.7zm53.4 7.7c.3 1.8-1.9 1.1-3.2 1.2l-.4-1.6c.6-.5 3.5-.9 3.6.4zm78.5 1.6c.3 1 .5 2.2.4 3.6-.8.2-1.3.8-2 1.2-1.8 0-2.4-1.2-3.2-2 .6-1.9 2.7-3.6 4.8-2.8zm4-.4c.7.5 1.6.8 1.6 2-.5.3-1.1.5-2 .4 0-.9 0-1.9.4-2.4zm-29.5.8c1 0 .8 1.4.8 2.4h-2v-2c.6.1 1.1.1 1.2-.4zm-42.5 4.5c-.9.8-3.1.4-3.2-.8.4-2.4 3.8-2.5 3.2.8zm-27.5-1.6c.8 0 .5 1.1 1.6.8-.2 1.2-.9 1.8-2 2 0-1.1-.1-2.3.4-2.8zm39.7 4l-2.4-1.2c.3-1.8 1-3 3.2-2.8 1.2 1.5 1.5 3.4-.8 4zm-68-2c1.5.8 2.9 1.7 2.8 4-1.8-.4-2.3-2.2-2.8-4zm67.2 4c.9-.1.4 1.2 1.2 1.2.1.7-.4.7-.4 1.2.3 1.1-.8.8-1.2 1.2.2 1.6-1.1 1.9-1.6 2.8-.1 1.3.7 1.7.4 3.2-.7-.4-1.2-1-2-1.2v-2c1.1-2.1 2.2-4.3 3.6-6.4zm-63.5 2.5c2-.1 3.1 1 2.4 2.4-1.4-.3-1.6.6-2.8.4-.9-.8.1-1.9.4-2.8zm36.4.4c1.7.3 1.3 2.7.4 3.6-.7-.4-1.3-.9-1.6-1.6-.2-1.3 1-1.1 1.2-2zm80.9 1.2c.5-.1.7.1.8.4.6 1.6 1.8 2.5 2 4.4-.4 3.5-5.1 1.9-8.1 1.6-.3-2.3.9-3.1 1.2-4.9l2 .8c1.3-.1 2.1-.8 2.1-2.3zm-112.1 4.8c.8 0 .5 1.1 1.6.8.2 2.4 3.2 4 2 6.5-1.6.9-1.7-1.3-2.4-2l-.8-.4v-1.6c-.1-.3-.7-.2-.8-.8-.1-1 0-1.7.4-2.5zm109.6 4.1c.6 1.2-.2 1.4 0 3.2-2 .2-3-.5-3.2-2 .5-1 1.5-1.5 3.2-1.2zm-4.8 4.8c2.6-.2 4 2.3 2.4 4-2.2 0-3.4-2-2.4-4zm6.9 4.5c-.5.6-.4 1.8-1.6 1.6l-.4-1.6c.5-.5 1.4-.5 2 0zm-114.5 8.5c-.3 1-3.6 1.5-3.2-.4.9-1 1.9.4 3.2.4zm63.9 6c.4 1.7.1 1.8 0 3.6l-2.4-.4c-.2-2-.1-3.7 2.4-3.2zm2.4 1.3c2.5-.3 4 .3 5.3 1.2.2 1.5-1.6 1.1-1.2 2.8-.3 1.7 1.8.9 2.4 1.6l-3.2 2c-3-.1-4.2-.6-4.4-2.4-.1-.6.4-.6.4-.8-.1-1.2.9-2.9.7-4.4zm-58.2 1.2c1 0 1 1.5.4 2-1 0-1-1.5-.4-2zm5.2 0c.1 1.4 1.1 1 .4 2.4-.5.6-2.3.6-2.8 0-.2-1.8.4-2.8 2.4-2.4zm47.8 3.2c-.7 1.1 0 3.5-.8 4.5-3.6.9-4.9-4.6-2.4-6.1 1.4.2 1.6 1.5 3.2 1.6zm-30.8.8h-2.8c-.7-2.4 3.7-2.9 2.8 0zm18.2-2c.3 1.4 1.3 2.2 1.2 4-1.3-.1-1.8-1.2-2.4-2-.6.5-1 .5-1.6 0 .3-1.3 1-2.2 2.8-2zm78.9 6.1c-1 .5-1.3.6-2.4.4-.5-.1-1.2-1-1.6-1.2h-2c-.7-.3-1.1-1.6-2-1.2-.1-.9 4.6-1.5 5.3-.8.1.1-.1.8 0 .8 1.1.4 3.5.1 2.7 2zm7.7-.4c-.1 1-.6 1.6-1.6 1.6-1.3-1.1.5-2.9 1.6-1.6zm3.6.8c1.4.2 3.9-.7 3.6 1.2-.6.4-3.7.4-3.6-1.2zm-71.2.8c1.3.3.5 1.1.4 2-1 0-.9-1.5-.4-2zm92.3 3.6c-1.8.3-1.7-1.3-2.8-1.6.6-2.3 4.5-.6 2.8 1.6zm-156.6 3.3c.2 1.6.2 1.2 0 2.8-1-.2-.9.7-2 .4-1.2-.6-2.1-1.4-2-3.2 1.2-1.2 2.4-.5 4 0zm-45.3 3.2c-.3 2-2.2 2.2-4 1.6-.6-2.9 2.8-2.8 4-1.6zm24.3 13.7c1.9 1-.1 3.9-.4 5.3-3.2.3-4.7-1.7-4-4 2 .3 2.2-1.2 3.6-.4.3-.2.7-.4.8-.9zm-6.9 6.1c.6-1.2 1.6.5 2.8 0-.5.6-.4 1.8-1.6 1.6.1-1-.6-1.2-1.2-1.6zm148.9 21.4c-.9-1-.9-2.9-1.2-4.4-1.7-.5-2.6-1-4 0-2.1-.2-4-.6-5.3-1.6.8-1.2-.3-2.4 0-3.6.2-1 1.2-1.3 1.2-2.4 1.4.3 1.6-.6 2.8-.4-.3-1.4.6-1.5.4-2.8.8.2.9-.6 1.2-.8.3-.2.8-.1 1.2-.4.7-.5 1.3-1.5 2-1.6.6-.1 1.3.9 2 .4 1.3-.4.6 1.3 1.6 1.2 4.2-.4 6.8.7 8.9 2.4-.3.5.4.7.4.8.6 3.4-.4 7.3-1.6 9.3-1.6.6-2.5 1.8-4 2.4h-4.8c-.7 0-1 .6-.8 1.5zm-4.1-1.6c.7-.1.7.4 1.2.4 0 2.4-1.6 3.2-3.2 4-.2-2.3 1.1-3.2 2-4.4zm-9.3 4.5c.6.6 1.2 1.2 2 1.6 0 2-.4 2 0 3.6h-4.5c-.6-3.3 1.4-3.7 2.5-5.2zm12.6 25.9c1.3.8 3.6.8 3.2 3.2-2.6.4-3.4-.9-3.2-3.2zm-2.1 2.8c.9.1 1.7.5 2.4.8-.2 1.1-.4 2.3-2 2-.5-.5-.4-1.7-.4-2.8zm47.4 7.3c.4 2.7-3.1 3.5-5.3 2.4-.6-3.4 3.7-4.8 5.3-2.4zm-31.2 9.3c-.5.3-1.1.5-2 .4-2.2-2.2 2.9-3.9 2-.4zm-6.9-.8c2.8.5 1.6 5.4-.8 5.3-1.5-.3-2.3-1.2-2-3.2.6-1.1 1.6-1.8 2.8-2.1zm10.5 2.4c.5.1.6.7 1.2.8-.1.7-.7.9-1.6.8-.1-.8.3-1.1.4-1.6zm-114 2.8v2h-2c0-.7-.5-.9-.4-1.6.9-.8.8-.5 2.4-.4zm134.3 3.7c-.8 1.6-3.1 1.8-5.7 1.6-.1-.9 1-1 1.6-1.6.4-.4 3.4-1.7 4.1 0zm-6.5 6c.9-.1 1.5.1 2 .4 0 .7-.5.9-.4 1.6-.7-.4-1.9-.4-1.6-2zm-4.4 6.5c-1.7.9-3.5-.1-3.2-2.4 1.3-1.4 3.6-.3 3.2 2.4zm4.4-3.2c.7.4 1.2.9 1.6 1.6-.1 1.2-.9 1.8-1.2 2.8-2 .4-2.2-1.1-3.6-1.2.2-1.9 2.7-1.6 3.2-3.2zm-42.5 3.2v2h-2c-.3-1.6.4-2.3 2-2zm44.1 4.5c-.3 1.2-.9 2.1-2.4 2-.3-.5-.5-1.1-.4-2 1.5-.1 1.5-.6 2.8 0zm-44.1 4.4c-2.3.4-3-.7-4-1.6-.7.1-.8-.4-.4-.4 1.4-.7 4.9-.5 4.4 2zm11.4-1.6c1.4 0 1.9.8 1.6 2.4-2 .7-2.6-1.4-1.6-2.4zm-89 .8c.2 2-1.2 2.6-2 3.6-.3 1.5-1.5 2-2.4 2.8.4 1.8-1.1 1.6-1.2 2.8-1.1-.7-2.1-1.5-2-3.2-1.8.2-3.1-.1-4-.8-.3-1.8.7-2.2 1.6-2.8 1.2.1 2.5.2 2.8 1.2 2.4-.8 3.2-5.4 7.2-3.6zm82.9 1.6c-.7.7-2.5.4-2.8-.4-.2-1.6 3.2-.8 2.8.4zm-15.8-.8c1.6-.5 1 1.2 2 1.2-.4.9-2-.3-2-1.2zm20.2.8c.3 1.3-.6 1.3-.8 2-1.8.4-1.9-.8-2.8-1.2.1-1.3 2.3-.6 3.6-.8zm18.2 10.9c-.3 1-.5 1.9-1.6 2-.1-1.3.5-1.9 1.6-2zm-35.2 2.5c1 0 1.6.6 1.6 1.6-1-.1-1.5-.6-1.6-1.6zm30.4 5.2c1.4-.4.6 1.3.8 2-1.8 0-.7-.7-.8-2zm-74.4.8c1.1 1.1 2.1 2.2 2.8 3.6-.1 2.1-1.5 2.8-2.8 3.6-2.2-.3-3-1.9-5.3-2-.1-1.4-.9-2-2-2.4.7-.4.8-1.3 1.6-1.6h2.8c1.1-.3 2.3-.4 2.9-1.2zm82.5 0c.7 1.3.9 2.1 0 3.2-1.6-.2-3.3-3.5 0-3.2zm-33.2 2.5c-.3 1.8 1.5 3.1.8 4-1.7 0-3.3-.1-4.4.4-.7-.7-.3-2.4-.4-3.6 1.4-.8 2.3-1.4 4-.8zm-31.9 5.6c-.3.9-2.3.2-3.2.4.3-.9 2.4-1.1 3.2-.4zm-46.2 6.9c-1.4.6-2.2-.5-3.2-.8-.5-.1-1.1.2-1.6 0-1.3-.4-2.3-1.5-3.6-1.6v-1.2c1.6-1.2 3 .6 3.6 1.6 1.9-.2 4.3.5 4.8 2zm91.9-1.6c.1 1.5-1 1.9-1.2 3.2.1 1.6 1.7 1.8 1.6 3.6-.3 2.1-1.7 3.2-3.2 4-3.1 0-6.1-1.1-6.5-3.6-.2-1.4.4-1.2.8-2 .7-1.5.9-2.6 3.2-2.8v-2.4c.9-.3 1.4-1 2-1.6 2.1-.5 2.2 1 3.3 1.6zm-14.6 2c.1 1.1-.1 1.7-1.2 1.6-.1-1 .1-1.7 1.2-1.6zm-65.9.4c1.7 0 0 3.5 1.2 4-.4 1.1-1.7-.1-2.4 0-.3-2 .1-3.3 1.2-4zm8.1 1.2c.6.5.6 1.9 0 2.4-.9.1-1.6-.1-2-.4-.3-1.6.8-1.8 2-2zm-5.7 8.9c-2-.3-1.3 2-3.6 1.2 0-1.8-.2-3.7.8-4.4 1.8.2 2.3 1.7 2.8 3.2zm36.8 0c.3.2.7.4 1.2.4.2 2.2-.3 3.8-1.2 4.8-.8-.5-.9-1.6-1.6-2 .9-.7.7-2.4 1.6-3.2zm-63.9.4c1.3.6.9 3.3.4 4.4-1.9 0-2.6 1.2-4.9.8-1.6-.9-1.7-4.4.4-4.9 1.4 0 2.6.4 2.8 1.6 1.1.1.7-1.4 1.3-1.9zm31.9 3.3c.8 1.4-.1 2.6-1.6 2.8-1.1-1.3.3-2.8 1.6-2.8zm31.6 2.4c.9.6 1.3 1.7 2 2.4.3 2 .2 1.7-.4 3.2.6 1.3.4 3.4.4 5.3.4 1.5 1.8 4.2-.8 4.5-.5-5-2.1-10.4-1.2-15.4zm-38 6.1h1.2c.8 1.3.9 3.4 1.2 5.3-.5.9-1.2 1.5-1.6 2.4-2.1-1-2.1-5.9-.8-7.7zm-29.5 4.4c-.1 1.3-1.4 2.9-2.8 1.6-.1-1.5 1.1-1.8 2.8-1.6zm14.5 3.2c.4 1.6-.6 1.8-1.2 2.4-1.5-.4-2.7-1.1-3.2-2.4.8-.6 3.6-.6 4.4 0zm15 1.2v1.6c-.7 0-1.1.3-1.2.8-.9-.4-1.5-1.2-1.6-2.4.5-.5 2.2-.5 2.8 0zm39.2 2.5c1.1 0 2.3-.1 2.8.4.4 1.3-1 .8-1.2 1.6-.1 1.5 1.2 1.5 1.2 2.8-1.1 1.5-2 .1-3.2-.4 0-1.6-.1-3.3.4-4.4zm-43.3 2c1.1 1 3.3 4.5 1.2 6.1-2.4-.7-1.9-4.4-1.2-6.1zm18.6 13.7c-2.2 1.2-4.8-1.9-3.2-4.4 3.2-.8 4.5 2.2 3.2 4.4zm49.4-114c1.1-.5 1.4-1.2 2.8-.4-.4.7-1.4.7-2 1.2-.1 2-.1 3.9.8 4.9-.1 1.3-.9 1.8-.8 3.2-1.2 0-2.6-.2-3.2.4.4 1.5 1.7 2.1 2.8 2.8 1.3.2 1.6-.6 2.4-.8 2.2.4 2.9-.2 4.4.8 2.6.7 3.8-1.5 4.9 0 .7-.6 1.9-.5 2.8-.8.6-.3 1.6-.4 1.6-1.2.7.4 1 1.1 2.4.8-.9-.3-.9-1.5-.8-2.8 2-.5 1.9 1 2.4 2 .7-.6 1.2-.8 2-1.2.7-.3 1.8-.5 2.4-.8.7-.3 1.4-1.6 2.4-1.2.4-.3.6-.7.8-1.2 1.5.4 2.3 1.5 4.4 1.2.8-.5.9-1.8 1.2-2.8l2.8-1.2c1.5-.2 2.5.6 4 .8 0 2.5-1.8 2.2-.8 4.9 2 .4 2.5 2.3 4.1 3.2v2.4c-1-.2-.9.7-2 .4-1.5.1-1.1-1.6-2.4-1.6-.9 1.6-1.6 3.5-2.8 4.9l.8 2c-.3 1.5-1.5 2-2.4 2.8-.4 2.4-1.7 3.9-2 6.5l-2.4-.4c-.8.8-.7 1.4-.4 2.4.2 1.3-1.1 1.1-1.2 2v7.3c-.1 1.6-1.5 2-1.2 4-.8.2-1.3.8-2 1.2v6.1c-1.3-.1-.9 1.6-2 1.6l-1.6 2c-2.3-.5-2.9.8-4.4 1.2-1.6.3-1.4-1-2.4-1.2-1.5-.4-4.7.9-4.9-.8-.7 0-1.1.3-1.2.8-.8-.1-.8-1.1-1.2-1.6-.5.3-1.1.5-2 .4 0-1.2.9-1.6 1.2-2.4-.8-1.2-1.9-2.1-2.8-3.2-.1-.7.3-.8.8-.8-.1-.8-1.1-.8-1.6-1.2.4-.7 1.3-.9 2.4-.8 1.1-2-1.2-1.9-.4-3.2 2.4.1 2.8-1.8 4.9-2v-3.2c.4-3.3 5.9-2.9 4.9-6.5 1.6.3 3.2 1.3 4.9.4.7.7 1.1 1.9 2.8 1.6l2 4.4c1.4.1 1.5-1.2 2.8-1.2-.4-2.2.9-6-.8-6.9l2-2c-1.2-1.3-2-3.2-2.8-4.9-3.1-.3-4.2-2.5-7.7-2.4-.6-1.3-2.9-.9-3.6-2-2.5-.3-4 .3-5.7.8-1.2-.9-6.9-1.9-8.5-.4.4 3.2-1.2 4.4-2.8 5.7.3 2 .2 2.4-.8 3.6-1.3.2-1.6-.5-2-1.2-.7 1.7-3.7 1.1-6.1 1.2-.5 1.7.9 1.6.8 2.8-1.6.2-2.3-.4-3.2-.8-1.2.7-1.3 2.4-2.8 2.8v2.4c-.4 0-.3.5-.4.8-1.3 0-1 1.7-2.4 1.6.5 1.7 0 2.1-.8 3.2-1.2 0-1.6-.9-2.4-1.2-.5 1.8-1.6 2.9-3.6 3.2-1.7-.6-2.8-1.8-3.6-3.2-1.3 0-1.4 1.3-2.8 1.2.4-1.5-1.4-.8-1.6-1.6-1.5 1.8-2.8 3.7-5.3 4.5-1.2-.8-2.5-1.5-3.2-2.8-1.3.1-1.6 1.1-2.4 1.6.5.7 1.9.5 2 1.6.1 1-.6 1.3-.8 2-1.2.1-2.2 0-2-1.2-1.3.7-2 2-2.8 3.2-2 0-4.4-.3-4.9 1.2-1 0-.6-1.5-1.2-2-2.7.4-2.3-2.3-4.4-2.4-.2-1.7-.9-2.8-1.6-4 0-1.1-.2-2.3.4-2.8-.3-.5-.9-.7-1.6-.8 0-1 .8-1.3 0-2-.8.1-.8 1.1-1.2 1.6-.7-.9-3.3.1-4.1-.8 1.2-1 2.9-1.4 4.5-2-.3-.9-.2-2.2-1.2-2.4-1.3.1-1.8 1.2-2.4 2-1 0-1.3-.8-2 0-.3 1.1.8.8 1.2 1.2-.5 1.2-1.5-.3-2-.4-.4-1.8.7-2 .8-3.2-1.6-.4-1 1.4-2.8.8-.4-1.2.9-.7 1.6-.8.5-1.8-1.1-1.6-.8-3.2.4-2 2.7-2.1 2-5.3.1-.9-1.4-.2-2-.4-.3-2 .4-2.9.8-4 .2-1.3-1.1-1.1-1.2-2-.6.2-2.1-.5-2 .4-.7-.4-1-1.1-2.4-.8-1 .1-.2 1.8.4 1.6-.3.9-1.2 1.2-2 1.6v2c-2.2.6-1.7 4-4.9 3.6-1.1-1.3.5-5.3-1.2-6.1.1-.7.7-.9 1.6-.8-.3-1.4 1.2-3.1 0-4-1.2-.1-.8 1.3-1.2 2-.9-.6-1.3-1.6-3.2-1.2-1.3-.5 1.1-.5 1.6-.4 1-1.1 3.2-1.1 4.9-1.6-.4-2.5-.6-4.7 1.2-6.5.6-2.1-1.1-3.2-.4-4 1.5-.7 4-.1 4.9-.4.3-1.6-.4-2.3-2-2 .3-1.5-1.9-.5-2.8-.8-.8 1.8-1.4 3.7-4.5 3.2-1-1.5-.7-4.2.8-5.3-1-1-.9.5-1.6.8-1.7.2-1.6-1.3-3.6-.8-.5-1.4-1.4-2.4-2-3.6-2.9.1-5.1-.6-6.9-2.4 1.5-2.9 1.4-7.3 6.5-6.5.5-1.7-.9-1.6-.8-2.8h2c1.4-1.3 3.8-1.6 4.8-3.2 1.3-.4 1.3.6 2 .8 1.2-1.4-.2-3.5-1.2-4-2.2-.4-2.3 1.2-2.8 2.4-2.2-.2-3.5-1.3-4.4-2.8-.7.4-.7 1.5-1.6 1.6-1.3-.6-3.6-.2-3.6-2 .8-.7 2.7-.3 4-.4.1-1.7-1.5-1.7-1.6-3.2 1.5-.2.7-2 1.2-2.8.7-1.1 2.2-1.2 2.4-2.4 2 .4 2.8-.4 3.2-1.6-1-1.5-4 .4-5.7-.4-.9.3-1.2 1.2-1.6 2-.9.1-1.6-.1-2-.4-1.7 1.3-3 3.8-1.6 6.1 1.3.1 1.9-.9 2.8 0-1 1.8-4.1 1.6-4.9 3.6 1.1 2.2 3.2 5.6 1.2 8.5-1.6.3-2.9.9-4.9.8-.7-.7-1.3-1.4-2-2-2.9 1.2-3.6-1.7-6.5-1.6-.1-2.2-1.2-3.4-2.4-4.5 1.5-.8 1.7-4.4 0-5.3.4-2.9 1.8-4.9 2-8.1-1.8.7-3.9 1.2-5.3 2.4-1.2-.1-1.4-1.3-3.2-.8.1-.9-.1-1.6-.4-2-2.1 1.1 1.2 2.1.4 4.5-.6 1.3-1.4 2.7-2.4 3.6-.3.3-.8.1-1.2.4-.7.4-1.3 1.5-2 1.6-2.9-1.2-3.2-7.7-.8-9.7-2.4-1.4-3-7.3 0-8.5-1.7-1.5-3.7-2.8-6.5-3.2-.2-1.3 1.9-.3 2-1.2.1-.9-.3-1.3-1.2-1.2-1.4.3-1.8 1.7-2.4 2.8h-4.5c-.4-1.7-1.7-2.7-2.4-4 .8-1.2.6-3.5 2-4-.4-.8-1.6-.9-2.8-.8.3-.5.9-.8 1.6-.8v-3.2c.3-1.5 1.8-1.7 1.2-4 1.7-.7 3.5-1.4 3.6-3.6 1 0 .8 1.4.8 2.4.2 1 1.6.9 1.2 2.4 1.3 1.8 5 1.2 5.7 3.6.7-1.3 1.3-2.7 2.8-3.2v-1.6c2 .4 3.1 1.8 5.3 2 1.2 0 1.5-.9 2-1.6l-2-6.5c-.9.2-2.1.8-2.8 0 .1-3 4 .3 4-2.8 1.3.2 1.8 1.2 3.2 1.2.4 1.1.4 1.7 0 2.8 1.4.9 1.5-.4 2.4-.8.9-.4 2.4 0 2.8-1.2h2.8c.4-.1.3-.8.8-.8h2.8c.9 1 1.6 2.2 2 3.6.9-.1 1.7-.5 2.4-.8-.3-2.8.3-4.2-2-5.3-.1-1.1.8-1 1.6-1.2-.8-1.8-1.4-2.6-.4-4.5h2c.5-1.5-.6-1.8-1.2-2.4-.6-.6-1.4-1.1-2-1.6-2.8.5-3.9-.7-6.1-.8-.8 1.2-.7 3.3-2 4-1.8.1-1.7-1.8-1.6-3.6-1.5-.9-4.7-.1-6.9-.4-.1 1.2-.3 3.1-1.6 4-3.7 1.2-4.8-3.7-2.4-4.9-.4-2.2-3.8-1.3-4.9-2.8-3-.1-5.8.1-7.7 1.2h-5.7l-1.2-1.6c.6-3 5.9-2.1 7.3-.4h13.8c1.4.6 2.8 1.3 4 2h7.3c1.1-.3.8.8 1.2 1.2 5.2-2.2 12.9-.1 17-2.8-.1-.7.4-.7.4-1.2-.4-2.6-2.9-.9-5.3-1.2-.5-.5-.5-1.5.4-1.6-.7-1-2.6-.6-2-2.8-2.3-.4-2.3 2.1-4.4.8-.3-1.9.6-2.7 1.2-3.6-.5-1.4-2.4-1.4-2-3.6-1.4.2-2.3-.2-3.2-.4-.6-1.6.9-1.3.8-2.4.5-.5 1.4-.5 2.4-.4-.3 1.4.6 1.6.4 2.8 1.5-1 2.6-.8 3.6.4 1.5 0 1.2-1.7 3.2-1.2.1.9.8 1.7 0 2.4.5.9 1.8 1.2 2.8 1.6.7.8 1.5 1.5 3.2 1.2v-2c.7-.4 1-1.1 2.4-.8.5 1.1.9 1.2.4 2.4.6.6 2.1.3 2.4 1.2.8-.1.8-1.1 1.2-1.6.5.1.6.7 1.2.8.9-.4 1.2-1.2 2.4-1.2.8-1.4 2.3-2 3.2-3.2-1-1.9.3-4.5 1.2-5.7-2.1-.7-3.9-1.8-6.9-1.6-1.2 1-1.8 2.5-4.4 2-1.5-3.2-1.1-6.4.4-9.3-1.1-.9-1.8-2.3-2.4-3.6-2.8.1-5.7.3-6.1-2h-4c-.8-1.4-2.1-2.2-2.4-4 3.6-1.5 6.2 1.3 8.1 2.8 1.5-.7 2.2-2.4 2-4.8.9.7 1.2.9 2.4.4 1.2-1 1-1.3.8-3.2 1.3-.6 1.9-1.8 2-3.6.4-.3.9-.4 1.6-.4 1.5-.2.9-2.3 2.4-2.4-.1 1-.1 2 .4 2.4 1.4-.1 2-.9 2.4-2 1.3.2 1.7-.5 2-1.2 1.4 0 1.4 1.3 2.8 1.2 2.2-.5 2.4-3 4.4-3.6-1.7-1.8-1.5-5.9.4-7.3h4.5c.9 1.4 2.9 1.7 2.8 4h1.6c.5-.1.3-1 .4-1.6 1.1-.1 1.3.6 1.2 1.6 2.3-.8 2-4.2 4-5.3v-1.6c1.3-.6 2.5-1.3 2.4-3.2 1.8-.5 1.7 0 2.8.8-.1 1.2-1.3 1.4-.8 3.2 0 1.3 1.3 1.4 1.2 2.8-1.6.3-1.8 2-3.2 2.4-.8.7.5 1.2-.4 2-1 .3-2.8-.1-2.8 1.2.7.1 2.7-.7 2.8 1.6l-2 .8c-.8 3.9 2.2 4 3.6 5.7 1 0 .6-1.5 1.2-2 .8.7.5 3.8-.4 4 .3.6 1 .9 2 .8-.3 1.6.4 2.3 2 2-.5 2.9-2 4.8-2.4 7.7l1.6 1.6c0 2.1-1.8 2.3-2.4 3.6-.2 2.7.4 4.7 0 6.5-1.7 0-1.8 1.4-2.4 2.4-2.3.1-3.6 1.3-4 3.2-1.3.1-.9-1.6-2-1.6.1-.9 1-.9 2-.8-.4-1.1-.7-2.3-2-2.4.1-.9-.1-1.6-.4-2-2.7-.2-4.1.7-6.9.4.1 1.9 2.5 1.5 2 4.1h-2c.3 2.1-.3 3.2-1.2 4 1.3.4 2.9.6 3.6 1.6 1.3-.5.9 0 2.4 0 .2 1 .6 1.8.4 3.2 2.8.5 1.4-1.4 2-2.4 1.8-.1 2.3 1.2 2.4 2.8.3.9 1.4 1 2 1.6-.2 2.8.1 5.1 1.2 6.5 1.2-.1 2.6.2 3.2-.4 0-1.2-1.9-.5-2.4-1.2.7-1 .9-2.3 1.2-3.6 1.8-.5 1.6 1.1 3.2.8 1.6-.1 2.2-1.3 4.4-.8 1.4.1 1.5-1.2 2.8-1.2.5 1 1.6 1.3 1.6 2.8.8-.5 2.2-1.7 3.2-.8l2.8-2c.1 4.4 7.7 3.5 10.9 2.4v-3.2c.7-.5 2.1-.3 2.4-1.2 2.5.8 6.8.8 6.5-2.4 1.1.6 2.3 1.2 3.2 2h3.6c1.2-.8 2.7-1.4 3.2-2.8 3.6-.1 4.6-4.8 8.9-2.8.5 1.3 0 .9 0 2.4-1.9.3-2.6 2-5.3 1.6-1.5 1-3.6 1.2-4.4 2.8-1.8-.2-2.8.4-3.6 1.2h-2.4c-1.4.4-.2.7-.4 2-1.2.4-.7-.9-.8-1.6-1.8.4-3.6.7-5.7.8-.3 1.4 1.6.5 1.2 2 .5 1.3-.6 1-.8 1.6.3.7 2.1-.6 2.8-.8 5.1-.4 9.4.1 10.1 4-.2.8-.1 1.7-1.2 1.6.5 2.3-1.7 1.8-1.2 4-1.9 1.9-4.3 3.3-6.5 4.9.5 2.3-1.7 1.8-1.2 4-2.4-.4-2.7 1.4-4.9 1.2.1.7-.4.7-.4 1.2-.1 1.1 1.4.8.8 2.4.5.5 1.4.5 2.4.4.2.8-.3 1.1-.4 1.6.8.6 1.4 1.2 2 2-.8 1.4 1.7 4.9-.4 6.5 1 1.6.3 2.4.8 4.4.7 1.2 2 1.7 2.4 3.2 1.1 1.2 3.3 1.3 3.2 3.6l2-.8c0 2.3-.3 2.4 0 4.5.7.6.8 1.9 2 2-.3 3.1 1.8 3.9 2.8 5.7.5-.5 1.4-.5 2.4-.4.2 5.1 8.1 2 10.1 4.5-.3 2.4-3.6 1.8-4 4 .4.9.3 2.4.8 3.2.2 1.3-1.1 1.1-1.2 2v2.4c-1.4 1.6-2.2 3.8-3.2 5.7.3 1.3 1 2.2 2.8 2 .4 1.9 2.4 2.2 3.6 3.2.2 1.3-1.1 1.1-1.2 2l-2.8-.8c-1.3.1-2 .9-2.8 1.6-.8-.1-.1-1.8-1.2-1.6-2.8.4-3.1 3.3-6.5 3.2-.8.1-.1 1.8-.8 2-1.4.2-2.1-.3-2.4-1.2-2.3.4-3.1 2.3-5.7 2.4-1.6.1-1.1-1.9-2.4-2-1.3-.4-1.7.3-2.4.8-.1.1-.8.3-.8.4-.6 1.3 0 4.1 1.2 4.4 1.1.1 1-1.1 1.6-1.6 1.4.3 1.7-.4 2.4-.8 2.9-.2 4.5.9 6.9 1.2 2-.3 2.9-1.7 5.7-1.2 1.5.7.5.7.3 1.5zm-79.7-135.1c1 .2 1.8.6 3.2.4.3-3-3.1-2.9-3.2-.4zm27.5 20.6c.9.7 2.1-.9 2.8-1.6-1.4-.7-2.7-.1-2.8 1.6zm-19.4 4.1c.1-.6.7-.7.8-1.2-.8.1-.9-.5-1.6-.4-.1.9.1 1.5.8 1.6zm-2.4 6c.4-.7.9-1.3 1.6-1.6-1-1.1 1-3.4-.8-4-.4 1.5-3 4.1-.8 5.6zm0 5.7c0 .7 1.1 2.4 0 2.8-.9-.1-.9-1-.8-2l-2.8 1.2.8 2c0 1.2-.2 2.6.4 3.2 1.9.1 2.6-1.5 2-2.8 1.7-.1 1.9-1.9 4-1.6-.2-1.3.3-1.9.4-2.8-.7-.6-3.3-.6-4 0zm27.9 6.9c.6 0 .9.2 1.2.4.1-.6.6-.8.4-1.6-1-.1-1.3.6-1.6 1.2zm28.3 1.2c1.4-.1 2.5-.5 2.4-2-1.2.2-2.3.6-2.4 2zm-12.5 1.2c-.1-.1.1-.8 0-.8-1.5-.4-3.3-.3-4.5 0 0 1.3 1.3 1.4 1.2 2.8-1.5-.3-1 1.4-1.6 2 1.1.6 3.6 3 4.9.8-.2-.7-1.9 0-2-.8 0-2.7 4.2-1.2 4-4-.5-.3-1.7.3-2 0zm-54.2 4.8c.7 1.1 3.9 1.3 3.2-1.2-1.2.3-2.9.1-3.2 1.2zm-6.1-.4c-.9 1.8-3.1 2.3-3.6 4.4v2.4c-.9.3-.9 1.5-.8 2.8-1.2 1.1-1.6 3-1.6 5.3 1.3-.2 1.8.4 1.6 1.6 1.9 0 2.3-1.5 2-3.6 1.8-.7 2.6-2.2 4.5-2.8.1-.8.3-1.3.8-1.6-.3-1.2-1.2-1.8-.8-3.6-.7-.9-1.4-1.2-.8-2.4.7.8 2 .9 3.6.8.2-1 .2-2.4 0-3.6-1.8 0-2.9.6-4.9.3zm50.1.4c-.1.8.5.9.4 1.6 1.8.3 2.6-.4 2.4-2-1 0-2.2-.1-2.8.4zm-58.2 15.8c.4-.8 1.8-.6 1.6-2h-2.4c-.1 1-.1 2 .8 2zm77.2 13c1.1 1.6 1 4.3 2.4 5.7 1.4-.3 1.7.4 2.4.8.2-2.1.9-2.1 2.4-1.2.4-2-1.6-1.6-2-2.8-.1-3.4-2-5-4-6.5-.9 1.3-.1 2.4-1.2 4zm11.8 13.7c2.5 0 2.4 2.8 5.3 2.4.1-1.1-1.2-.9-1.2-2-.4-1.4-.7-2.8-1.6-3.6-.3 1.6-3.2.6-2.5 3.2zm-12.2 45.7c-1.6-.1-2 .6-3.2 1.6.2 2.5-.9 3.7-2 4.9-1.5-.3-1.5.9-2.8.8l-1.2 3.6c4.6.8 8.1-1.7 11.3 0 .5-1.4 2.2-1.5 2.4-3.2.1-2.5-1.5-3.4-1.2-6.1-1.2.1-2-1.5-3.3-1.6zm-26.2 12.6c-1.4.9-.1 1.5.4 2.4-.7 0-1 .3-1.2.8 1.4.4 3.6 1.4 4-.4-.6-.3-.9-1-.8-2 1.5-.7 2.2-2.1 3.2-3.2-1.3-.8-4.1-.2-6.1-.4-.6-.1-1.9-1.6-2.4-.4.6 1.4 2.2 1.8 2.9 3.2zm13.3-.4c-1.3 0-1.9-.5-2.8-.8-.8 2 2.6 2.1 2.8.8zm4.5 4.4c-1.7-.7-.5-4.6-2-4.4-.1.8-1.1.8-1.6 1.2.3 2 1.4 3.2 1.6 5.3-.4 1-.8 3.1 0 4 2.5-.1 1.9-3.4 2-6.1zm-15 9.3c1.1.1.9-1.2 2-1.2 0-.7-.3-1-.8-1.2-.2 1-1.6.9-1.2 2.4zm15 0c1.6.1 1.2 1.8 2.8.8-.2-1.3-.4-2.6-1.6-2.8-.2.9-1.4.7-1.2 2zm51.7-164.2c-1.3-.1-1 1.4-1.6 2-1.7-.3-2.6.4-3.2 1.2-1.4-.1-3.3.3-4-.4-1.3 1.5-2.8 2.8-5.7 2.8-.6-.6-.4-2.1-.4-3.2 1.8 0 2.2-1.6 4.4-1.2 1.3.1.5-1.8.8-2.4.1-.3.7.2.8-.4.2-1.8-1.1-3.4-1.6-4.8-.3-1.1.8-.8.8-1.6-1.1-2.3.4-4.5 1.2-6.1 1.3.2 2-.1 2.4-.8 1.7-.2 1.6 1.3 3.6.8.3 1.3 1.9 1.3 1.6 3.2h4c.6.7 1.5 1.2 2.4 1.6-.1.7.3.8.8.8-.6 1.5-1 3.4-1.2 5.3-1.5.3-1.9 1.7-4 1.2-.8.1-.8 1.1-1.2 1.6.1.8 1.4.2 1.6.8.3.7-2.1.7-1.5-.4zm-162.2 59c0-.3.8-.6 1.2-.4.1 0-.1.7 0 .8.2.2 1.6-.1 1.2 1.2.7.1 2-.4 1.6.8h-1.6c-.3-1.2-1.7-1.4-2.4-2.4zm60.3 116.1c0 1.5 1 2 1.2 3.2.4 1.8-.7 2-.8 3.2 1.8.4 1.9-.8 2.8-1.2 2 0 4.4-.3 4.9 1.2 1-.2.9-1.5 1.2-2.4.9-.1.4 1.2 1.2 1.2 3.1-1.4 4 1.5 7.3 1.2-.2 1.7 1.1 1.9 2 2.4 1 .8 1.3-1.1 2.8 0 .1 1 .5 1.7.8 2.4.2 1.3-1.1 1.1-1.2 2-1.1-.1.4 2.3-1.2 1.6-1.3-.4-.5-3-1.2-4-2.3-.5-3 .7-4.5 1.2.2.8-.3 1.1-.4 1.6-.1 1.4.7 1.7 1.2 2.4l-.8 2c.1 1.7 1.7 1.8 1.2 4-1-.2-.9.7-2 .4-.4-1.8 1-5.3-1.2-5.3-1.8-.2-1 2.1-1.2 3.2-.3 1.3-.7 2-.8 2.8-.1 1.1.2 1.7 1.2 1.6-.9 1-1 .8-1.6 2.8-.4 1.4-.9 1.6-.8 3.6-.3 1.5-1.5 2-1.2 4 .1 1.9 1.7 2.4 1.2 4.9 0 1.4-1.5 1.5-1.2 3.2-.1.9 1.4.2 2 .4.3 1.3 1.8 1.7 2.4 2.8.2.4-.1 1.2 0 1.6.3 1 2 1.7 1.2 2.8-2.3 3.4-7.9.7-9.3-1.6-1.7 0-4.4.9-6.5 0-.3-.1-.5-1-.8-1.2h-.8v-.8c-.7-.7-1.4-1.2-2-1.6.6-1.6-.8-2.8-.8-4 0-2 1.2-3.5 2-5.3 2-.5 2.9-2.2 4-3.6v-2.8c-.1-.9.3-1.3 1.2-1.2-.4-1.1-.4-1.7 0-2.8 1.4.1 2 .9 2.4 2 2.2-.9 2.2-4 2.4-6.9-1.8-.5-1.9-2.7-3.6-3.2.5-1.8-.4-2.5.8-3.6-.6-1-1.4-1.8-2.4-2.4-1.1 0-1.7 1.5-2.8.4-1.1-1.9 1.5-1.5 1.2-3.6-.9-1-1.1.6-2 .8-5.1.6-8.8-.5-8.1-6.1 2.3-2.1 5.7-3.5 10.6-3.3zm79.7-5.2h1.6c.1 1 .6 1.5.4 2.8-.9.8-2.6.9-2.8 2.4-2-1.2-1.9 1.4-4 1.2-.4 1.8.8 1.9 1.2 2.8.1 2.4-.2 4.4-2.4 4.4-2 1.6-2.6 4.5-2.8 6.9.7 1.3 2 2.1 4 2 .4 1.3-1.3.6-1.6 1.2.1 1.5 1.7 1.5 2 2.8.9-.6 1.8-1.2 2.4-2 1.3-.2 1.7.5 2 1.2 1.4 0 .2-2.5 1.6-2.4 1.6-.3 1.2 1.5 1.2 2.8-.5.3-1.1.5-2 .4-.5 1-1.8 1.1-2.8 1.6.4.8.7 1.7 1.6 2-.2 1.9.5 3 1.2 4 2.7 0 3.4 2 4.5 3.6.3 1.7-.6 2.1-.4 3.6-.1 1 .6 1.3 1.2 1.6-.1 1.6.2 2.8 1.2 3.2.2 2.6.6 4.1-.4 6.1-1.1-.3-1.1.6-2 .4-1.1.3-.8-.8-1.2-1.2-1.8.3-1.8-1.2-3.2-1.2-1.3.1-.7 2-.8 3.2-.6 0-1.1-.1-1.2.4-2-1.3.1-4.1.8-5.3-.3-3-2.3-4.4-3.2-6.9-1.8.6.1 5-1.6 5.7.1 2.1.5 2.6-.8 3.6-2 .1-2-1.8-2.4-3.2-.8-.7-1.1-1.9-2.4-2l1.2-1.6c-.3-.9.7-3.2-.8-2.8l1.6-2.4c-.1-.5-1.2-.5-1.2 0-2.2-2.7-7-2.7-9.3-5.3v-3.6c-1.3-.2-1.4.7-2.8.4 1.2-.8.5-2.7-.8-3.2.4-1.9-.5-2.4-.8-3.6-.1-1.2.1-2.1.8-2.4-.5-1.4-.9-1.5-.4-3.2.8-.6 2.7 0 3.2-.8 1.8.6 2 2.8 2 4.1.9.1 1.5-.1 2-.4-.5-1.2-2.2-.8-1.2-2.4-.6-.6-1.1-1.3-2-1.6-.5-3.7 2-4.5 1.2-8.5 1.5-.7 2.3-2 3.2-3.2 1.8-.5 2.8-1.7 4.4-2.4 1.1-.6 1.2-2.3 3.2-2 .5.7 1.1 1.4.8 2.8l2.4-.4c1.3-.4.6 1.3 1.6 1.2 1.5-.6 1.9-2.4 3.2-3.2-.2-.3-.4-.7-.4-1.2z" fill-rule="evenodd" clip-rule="evenodd" fill="#ED2127"/></svg>