<svg xmlns="http://www.w3.org/2000/svg" width="283.5" height="283.5" viewBox="0 0 283.5 283.5"><path d="M220.9 231.1c-.9 1.1 1.2 2.1 2.1 3.2.7 3-.9 6-1.9 9-.5-.3-1 .5-1.4.9-.8-.4-1.6-.1-2.3-1.1-1.6-.2-3.1.1-4.7-1.1-3.7-.7-7.4-.3-11 .7-1.8 1.6-3.6 4.4-5.5 5-1-2.8.3-5.6-.4-8.4-1-1.1-1.9.1-2.9 0-.8-1-1.6-.8-2.3-.5l-1.2-2.3c-.8 1.4-.3 2.7-2.3 4.1-.9 2.8.2 5.6.4 8.4 0 .8-.8 1.6 0 2.3-1.1.8-1.1 1.6-1.7 2.3-.1 1 .5 1.9 0 2.9-1.1 1.1-2.1 1.6-3.2 2.1-.8-2.1.5-4.3.5-6.4-1.3-1-1.8-1.9-1.8-2.9 1-1 1.9-2 2.9-2.9.7-1.1.3-2.9.2-4.4l-.6-.6.6-.6c0-.6-.2-1.9-.6-2.9l1.7-1.8c.5-1.7.8-3.3-.3-4.9 1-1.3-.1-3.7-1.8-4-1 .4-.5 1-.6 1.8l.3.9-.6.6c0 .9.5 2 0 2.9-.7.9-1.4.2-2-.3-1 .8-1.9.7-2.9 1.2-2.9-1.9-5.8-.2-8.7-1.1-3.2 2.9-6.3 7.9-9.5 6.8-2.2-3.4-5-4.5-7.9-3.7-1 1-1.9 2-2.9 2.9-1 1.1-1.9-.1-2.9 0-1.4 2.4-2.9 1.2-4.3 1.5l-1.7 1.8c-1.7-1.2-3.3.7-4.9-.2-.9.8-1.7 2.1-2.6 2.1-1.8-1.2.1-2.5.2-3.8-1.6-.1-3.1-1.2-4.7-.5-3.5-2.8-7-2.6-10.5-3.4-.9 1.2-1.7 1.1-2.6 1.5-1.1-.9-2.1-1.2-3.2-2.6-1.7.2-3.5-.4-5.2.1-1.5-.9-2.9-2.6-4.4-3.1-1 2.6-2.2 2.6-4.6 4.1-2.2.1-4.5-1.6-5.3-4 .4-1.6 1.4-3.3 2-5-2.2.3-4.4 4.2-6.7 2.7 1.3 1.8-2.1 5-4 5.9-1.8-1.3-1.4-2.7-.6-4.1 1-1.3 1.9-.1 2.9-.6.7-1.1-1.3-2.1-1.5-3.2.2-1.2.7-2.3 0-3.5 2.4-3.5 4.8-2.6 7.2-3.3 2.5 1.9 5.1 6.4 7.6 5.7 1.4-1.8.4-3.5-.1-5.2 1.2-.5 3.4.9 2.9 2.3.8 1.3-1.1 2.7-.5 4.1 5 2.1 9.9 3 14.9 3.6 1 .9 1.9.9 2.9 2.3 3 .6 6 1.1 9 .2 1 1.3 2.2.3 3.5.5 1 .2 2.6-.4 4.1 0 .6-.8 1.2-.1 1.7-1.2 4.7-.1 9.3.5 13.9-.2l5.7-5.9 5.5.2c.9-.9 1.7-.7 2.6-.3.4-1.3-.3-2.5 1.4-3.8.3-1.6 0-3.1.5-4.7-1-1.7-3.3-3.4-3-5.2l-2.6-.3c-1.7-1.9-3.3-3.2-5-3.7-.4.9-.7 2.6-2 2.6-1.6-.1-1.4-1.9-2.9-2.9-1.7-.9-3.3 0-4.9.9-1.1 1.2 0 2.3.6 3.5-.2 1.8.1 3.7-.8 5.5-2.6 2.6-5.2 5.3-7.7 7.9-.6-.2-1.2.1-1.7.6-1.6-.6-3.1.6-4.7-.5-1.5.9-3.1-.5-4.6.6-.9-.9-1.7-.5-2.6-.8-1 .5-1.9.4-2.9 1.2-2.2-.1-4.5-.5-6.7-.8-.8-.6-.1-1.2-1.2-1.7 1-2.3 2.1-6.2 5.4-6.2.7-1.8-.9-3.5-.6-5.2-1.1-1.2-3.1-2.5-3.2-3.7-3-.7-3.5 3.7-5.8 4.7-1.2.9.3 1.7-.8 2.6-.9-.8-1.8-.7-2.6-1.4l-1.7 2.9c-2.5-1.8-5.1-1.5-7.6-1.1-1.6-2.5-3.1-1.4-4.7-2.3 1.5-2.1-2.4-4.2-4.1-6.3-2.1 0-4.3.5-6.4 1.8-.8-.1-1.6-1-2.3 0-1.3 1-.1 1.9-.5 2.9-.9.9-1.7 1.8-2.6 2.6-.9 0-2.6-1.7-2.6-2.6 1.6-.9 3.2 0 4-2.4-1.7-.6-3.3-.6-4.9-.8-4.3-5.3-8.6-2.8-12.8-1-1.1-.9-1.5-1.7-2.1-2.6 1.3-1.8 2.7-1 4-1.8 3.3-3.3 4.5-6.6 6.3-9.9-1.1-1.5-2.1-.4-3.2-1.4 1.3-1 1.4-2 1.7-2.9-2.6-.9-5.2-1.6-7.9-4.8-.2-1.6-.7-3.3-1.5-4.9.8-3 3.7-4.3 6-6.2.8-1.1 1.5 0 2.3-.6.4-1.3-1.7-2.5-.9-3.8 1.7-2.8 3.5 0 5.2-2.4 1.6-1.2-.6-2.3-.6-3.5-.7-.6-.7-1.2 0-1.7-.8-1.1-1.1-2.1-1.5-3.2.5-1.6 1.9-3.1 1.1-4.7 1.1-.7.7-1.4 1.4-2l1.1-5.2c-2.5-.6-5 6-7.5 4.7-.5 1.7 1.5 3.3.9 4.9.8 1.5-1.4 3.5-2.9 3.5l-4.7-4.6c-1.7-.4-3.5-.4-5.2.1-.5-1.1.1-2.1-.3-3.2-1.2-.2-2.3-1.9-3.5-.5-1.2-.9-2.3-.8-3.5-.5-1.2-1.5-2.6-1.3-3.5-2.3-1.7-1.8-.7-4.6-2.7-6.7 1.1-1.5-.5-2.9-.9-4.3.8-1.8 1.6-3.7 1.4-5.5 1.7-2.3 3.6-6.1 6.6-6.8 1.7-2.5-.9-5 1.7-7.6.4-1.5-1-2.9-.9-4.3.7-1.2 1.5-2.3 1.7-3.5-1-1-1-1.9-2.4-2.9-1-1.6.1-3.3-2.1-4.9.3-.9.7-1.8.3-2.6-1.9-1.9-3.7-1.8-5.6-2.5-2.5-2.3-2.2-4.6-3.6-6.9.3-.7 1-1.4.8-2 2.6-1.5 5.2.9 7.8.2 2 1.6.5 3.3 2.1 4.9l-.5 4.7 8.8 8.6c1.9.7 3.7.4 5.5 1.4 2.3-1.5 4.6-3.1 6.9-3 1.8 1.1-.3 2.3.6 3.5l5.9 5.7c2.1-1.3 4.2-3.5 6.3-5.3 1.5-.1 2.9-.3 4.3-.9 3.2.4 6.4 1.6 9.6 3.1 2.4-1.4 4.8-1.5 7.2-2.7 1.5 0 2.9 2.2 4.4.8 1.1.6 2.1 1.4 3.2 1.4l1.7-2.9c1.9-1.6 3.8-2.9 5.8-3 1 .8 2 2.6 2.9 1.7 1.2-1.3-.2-2.5-1.5-3.8.3-1 .1-1.9-.6-2.9 3.1-2.9 5.1-5.6 7.8-7.4.5-1.4.5-3.1 2.3-2.3 2 1.9-1.9 2.3-1.4 4.4 3.5 2.9 4.5 5.8 5.9 8.6 2.5 0 5-.5 7.6.5 1.1-1.6-1.6-3.1-3-4.6-1.1-1 .1-1.9 0-2.9-2.2-1.6-.6-3.3-2.1-4.9.6-.8.6-1.6 1.7-2.3.2-2.9-1.6-5.8-4.8-8.7-.5-1.7-.6-3.5-1.2-5.2 2.1-2.5 2.6-5.1 3.4-7.6-1.3-.8-2.5 1.6-3.8-.3-.2-1.6 1-1.4 2.3-2.9 1.1-1.7-.1-3.3-2.1-4.9 0-1.4 1-2.7-.6-4.1-1.3-1.7-2.5.2-3.8-.8-1 0-1.1.8-2 .9-.7 0-1.2-1-1.7-.6s.1.8 0 1.7c-.1 1.5-1.2 3.3-1.4 5-1.5 1.3-3.1.1-4.6 2.4-1.5.1-2.9 0-4.3 1.5-1.3-.6-2.5.1-3.8-.2l-1.8-1.7c.4-1.3 1.1-2.5 2.6-3.8.8-1.1.4-2.1.3-3.2 1.1-1 1.8-2 1.7-2.9.9-1 1.7-.2 2.6-1.5.8-1.6-.5-1.4-1.8-2.9.7-1.6.6-3.2 1.4-5 .2-.3.7-.5.9-.9 1-1.3 2.1-.6 3.2-.9 2.2-3.1 4.4-1.4 6.6-3.3 1 .3 2 1.5 2.9 1.7 1.8-.8 3.7-2.4 5.5-4.4 1.6-.7 3.3-.8 4.9-2.1.6.7 1.2.7 1.7 0 1.3.4 2.5 1.1 3.8.2 1.4 1.2 2.7.3 4.1 1.1 2.2 3 6 4.2 8.2 8-1.1 1.7.4 3.3-.2 4.9 2.1 0 4.2-1.5 6.4-1.8.8-.8 1.5-1.6 2.3-2.3 1-2.1-1.3-5.5.5-7.6.8-.9 2.1-1.3 3.8-1.5 2.6 1.8 5 4.9 4.2 7.5 1.5-.3 3.1-.5 4.7 1.7-.9 3.6-4.2 1.3-6 4.4l-2.9-.5c-.6 1.1.7 2.1.9 3.2 0 1.4-1.5.1-2.3 1.8 0 1.1 1.7 2.1 2.7 3.2 1.8.9 3.7-1.4 5.5-3.3 1.7-1.1 3.5.3 5.2-1.8 1.6.1.1 2.2 1.5 3.2.4.1.8.2 1.2.6 1.7 0 3.5-.7 5.2-1.2.4-.8.3-1.8.3-2.6 0-.9.3-1.7-.3-2.6 2.1-2.8 1.6-5.6 1.9-8.4-2.2-1.5-1.4-3.1-1.8-4.6-1.5-1.2-2.3-2.5-2.7-3.7 2-2.2.5-4.3 2.2-6.4.3-2.4-.1-4.8-.4-7.3 1.1-2.9 4-6.8 7.2-7.3l2.4 2.3c-.5.9-.9 1.8-2 2.6-.4 2.5-.3 5-.5 7.6 2 1.9 2.2 3.8 4.1 5.8-.8 1.1.3 2.1-.2 3.2-1.7 2.1-3.5.5-5.2 2.4-1.7 2.8-.9 5.6 2.7 8.4-.2 1-1.4 2-1.7 2.9 2 3.5 1.7 7 1.3 10.4l3.8 3.7c3.5.5 7 2.8 10.5 2.2 1.3 1-.4 1.9 0 2.9 1.7 1.3 3.3.6 4.9-.4 1.2.7 2.3.2 3.5 0 1.5 1.2 2.4 2.5 3.2 3.7-.4.3-.4.6-.3.9-1.3 2.1-2.7 1-4.1 1.2-1.7 2.4-1.8 4.9-3.1 7.3 1.7 1.5 3.3 2.3 5 4.3-.8 2.3-.9 4.7-.5 7-1.6 1.7-1.4 3.3-2 5l-1.7 1.8c-1.2.8-4.4-.1-4.3 3.2 1.7.2 3.5 1.4 5.3 1.7 1-1.1-.3-2.1.3-3.2.7-.7 1.4-.4 2-1.5 2.7.1 3.1 2.1 5 4.3.9 1.1 1.7 0 2.6.3 1 .3 1.9 1 2.9 1.1 1.5-.9 2.3-1.7 3.2-3.2 1.8.3 3.7-.5 5.5-.9 1.8 1.7 4 3.4 3.5 5.2 1.3-.1 2.3.9 3.5 1.1 2 .4 4.2-.6 6.1.8 1.5-.8 3.1-.2 4.7.5.4 1.6-.4 3.3-.2 4.9-2 2.1-2.7 4.4-4.9 6.2-1 .8-2.7.9-3.5 2.4-.9.8-1.7.4-2.6.3.4 2.5.2 5-1.1 7.6l3.2.8c1.6-1-.3-2.8 1.7-2.9 1.1 1.4 1 2.9 1.5 4.3 1.4.9 2.7 1.1 4.1 1.1 1.9 1.7 3.7 3.4 3 5.2 1 1.1 1.9 0 2.9.5 1.2.9 1.1 1.7 1.5 2.6-1.4-.8-3.9.8-4.3 2.7 1.6 1.3 3.1.2 4.7.5 1-.6 1.9-2.7 2.9-2.4.9.7.1 1.8-.3 2.6-.4 1-2.3 1.6-.8 2.6 1.3-.2 3.7-2.9 4-4.1-1.3-1.3-2.5-.7-3.8-2.6.1-2.4 4.1-4.9 6-7.3 1.6-1 3.3.1 4.9-2.1 2.5.6 5-.4 7.5-1.3 1.1.9 0 1.7.3 2.6-2 2.5-4.1 1.1-6.1 2.1-1.4 1.2-.6 2.3-1.7 3.5-1.5-.1-2.9.9-4.4.3-1.3 1 .3 1.9 1.2 2.9 1.2.6 2.3-1.2 3.5-1.8l5.8.5c.9 2.8 1.4 5.6-.8 8.4l-.3 3.2c-1.9 1.7-3.8 4.7-5.8 4.7 0 1.8-.6 3.7.4 5.5-1 1.8-1.6 3.7-2 5.5-2.8 2.6-5.3 5.3-4.8 7.9-1.4 1.4-2.9 3.2-4.3 3.8-.9 1.5-.1 2.9-1.4 4.4-1.4.9-2.9-1-4.4-.2-2.8 2.6-1.6 5.1-4 7.6 2 1.2 5.3-.2 6.4 2.8 3.6-1.3 7.2-6.6 10.1-9.7.8-.6 1.5-1 2.3-.6.8-.4 1.5-2.5 2.3-1.2 1.3 1.3-1.2.5-1.7 1.2-.9 1.7-.7 3.3-1.4 5-2.7-.5-5.4 3.3-8.1 5.9-1 2-.5 4.1 2.1 6.1-.3 1.9-.7 3.9-.5 5.8-1.8 1.4-1.8 2.7-2.3 4.1.3 2.3.8 4.6.7 7-2.3 2.3-3 4.5-3.7 6.7-1.7.8-3.2 1.3-4.9 1.5-1.6.2-3.4-.4-4.9.3-1.2 1.8 1.4 3.3 2.1 4.9.2.4-.1 1.4 0 1.7.2.7.7 1.2.6 1.7l-4.9 5c-1-.1-1.9-.1-2.9 0l-6.8-6.6c-1.9-.9-3.9-.7-5.8-2.3-1.1.2-2.1 0-3.2-.3-1.6 1.6-3.3 1.4-5.1 1.6zm-2.3.7c2.3-1.7 3.9-4.5 5.1-7-1.1-.6-.4-1.2-1.2-1.7-1-.7-1.9.6-2.9 0-.9-1.1.9-2.1-.3-3.2-.6-.6-1.2-1.2-1.8-1.7-.2-1.9-1-3.9-.1-5.8 1.4-1.5 2.5-2.9.2-4.4-.8 1.4-1.1 2.7-2.9 4.1 0 1.4-.4 4.9-2.6 3.8.4-1.5.8-2.9.8-4.4.1-.6.4-1.2 1.1-1.8-1-1.7 1.2-3.5.5-5.2-1.4.6-2.9 1.6-4.3 3.2-1.3-.9-2.5 0-3.8-.2-1.1-.9-2.2-2.6-3.2-2.6 0-1-.2-1.9-1.2-2.9-.8.1-1.6-.6-2.3-.6-.7 1.8-.3 3.7-1.4 5.5-.7-.2-1.4.1-2 .9-1-.2-1.9-1-2.9 0l-2.3 2.4c-1.2.6-2.3-.5-3.5.6-.8 2 .5 5 3.3 6.1 1.3-.2.5-2.2 2-3.2 2.4-2.2 4.8-1.6 7.3 1.4 1.7-.5 3.5-3.2 5.2-4.7 6.7.7 1.3 11.7-3.4 7.6l-2 2.1c1 2.9 3.9 1.6 5.9 3.4.7-.1 1.3-.8 2-.3 1.2 1.3 3.5 2.6 4.4 4.3.5 1-.1 2.2.6 2.9 2 .8 3.9.9 5.7 1.4zm42.3-83.9c-.8.6-1.1 1.2-1.1 1.8.9.9 1.8 1.2 2.6.8-.2-.9-.4-2.6-1.5-2.6zm-81.3 75.6c-.8-.8-1.6-1.7-2.3-1.7-2.6 2.3.4 4.5 1 6.7 2.7-.9.8-3.3 1.3-5zm18.2-36.2c-1 0-3 1.2-3.2 2.1 1 3.2 4 3.8 6.4 2.2-.3-1.5-1.6-2.9-3.2-4.3zm25.4-39c-.9-1.8-.1-3.7-2.1-5.5-1 .2-1.9.9-2.9 1.2.2 1 .4 1.9 1.2 2.9-.3 1.2-.2 2.3 1.2 3.5 1.5.1 1.3-.8 2.6-2.1zm-2-13.9c-.5.3-1 .2-1.4.9.8.9 1.6 1.6 2.3.5-.6-.4-.3-.9-.9-1.4zm-19.2 20.9c-1.7-1.3-3.3-.9-4.9-.2.1 1 2 2.8 2.9 2.9.8-1 2.1-1.9 2-2.7zm-76.1 51.4c.3.2.6.1.9-.3-.3-1.4.2-2.7 1.7-4.1 0-1.1-1.5-2.1-.9-3.2 2.6-.3 5.3-1.7 5.2-4.7-.9-.9-1.8-1.7-2.6-2.6-.7-1.2.1-2.3-1.2-3.5-1.1.1-2.1.4-3.2-.3-1.7 1.5-2.9 2.2-3.4 4.1 0 1.4 2.2.1 3.5 1.1 1.2.9 2.1 1.8 1.8 3.5-2 1.4-3.9.8-5.3-1.7-3.4 1.6-4.1 5.6-5.7 8.2.2 1.3 2.6 2.5 1.5 3.8-.8.8-1.8 1.6-1.7 2.3 1.1 1.2 2.2 2.1 3.2 2 1.3-1.3 2.8-2.5 2.6-3.8 1.1.9 2.4-.5 3.6-.8zm39.7-89.4c-1.5-1.4-1.1.6-2.6 1.5.9.8 2.5-.7 2.6-1.5zm-17-8.5c-1.8-1.7-3.5-1-5.2-1.1.2 1.2.9 2.3 2.4 3.5.9.2 2.7-1.1 2.8-2.4zm-14.8-.7c-.8.4-1.5.3-2.3.6-1.8-1.6-3.5-.1-5.2-1.7-1.8 3.4 3.6 3.8 5.3 4.6 2.1-.7 4.3-.1 6.4-.1l.9-.9c-.8-2.3-3.6-1-5.1-2.5zm-51.6 36.9c-.6-1.1-1.2-.3-1.8-1.1-1.2 1.4-1.1 4.3 1.2 4.6-.8-1.1.2-2.3.6-3.5zm79.2-88c-2.2 0-4.5-3.1-6.7-3.7-2.6 2.8-1.8 5.6.4 8.4 1.5.4 2.9.2 4.3-.9 1-.1 1.9 1 2.9 0-.6-1.3-.1-2.6-.9-3.8zm-81.6 82.3c1.2-1.1 0-1.5-.9-2-.3 1.2-2.2 2.3-2.3 3.5 1.5.8 2.9 2.5 4.4 1.4-.5-1-.3-2-1.2-2.9zm86.1-92.9c-.5.4-1 0-1.4.3.2 1.3.7 2.1 2.1 1.4-.7-.5.3-1.1-.7-1.7zm-96.5 72.3c-1.8.9-.5 1.7-.6 2.3 0 .8-1.1 2 .3 2.6 2.5-.5 2.9-3.3.3-4.9zm59.4-66c-2.2 1 1 4.2 2.1 2.6-.9-.9-1.1-2.6-2.1-2.6zm50 185.6l-1.4.3c-.4-.6-.2-1.2.6-1.7.7.4.5.9.8 1.4zm-29.9 18.9c-1 .9-2.8-1.4-2.9-2.3 1.2-.9 3.1 1 2.9 2.3zm105.8-117.7c-.1-.4-.2-.8-.6-1.2 3.2-1.6.5-4.3 2.6-5 1.1.8 1.1 1.5 0 2.3.9 1.5-.1 4.2-2 3.9zm-101.4 104.3c-.5.7-1 .6-1.4.9l-.3-1.4c.6-.5 1.2-.2 1.7.5zm-19 11.9c0-1.3 1.2-1.4 2-1.5.7 1.1-.6 3.5-2 1.5zm116.8-121.4c-.9.4-1.7 0-2.6-.8v-4.1c3.1-1 2.4 3.3 2.6 4.9zm2.3-7.6c-2.8-1.9-2.6-3.8-1.2-5.8 1 .8 1.9.7 2.9 1.1 1.1-2-1.1-4.1 1.4-6.1 2.6.6 2 2.5 2.1 4.3.1 1.1-.1 2.7 0 4.1-1 .8-1.9.3-2.9.6-.8.9-1.6 1.9-2.3 1.8zm-98.8 98.8l-.9.9c-1.1-.1-2.8-1.9-2.4-2.9 1.1-1.6 3.1 1.1 3.3 2zm-13.3 3.1c1-2.3 4.3-4.7 6.3-7 .9 0 1.8 1.2 2.6 2-1.8 2.6-6.1 8.5-8.9 5zm115.4-118.2l1.1-2.9c3.9-1.5 1.7 5.3-1.1 2.9zm3.1-7.3c-1.3-1.3-1.1-2.7-2.9-4 .8-1.3.1-2.5-.3-3.8l2.3-1.2c2 2.9 4.4 7 .9 9zm-150.3 146.2c-1.4 1.3-3.2-.3-1.8-1.7.8-.1 1.9.9 1.8 1.7zm150.9-164.5c-1.9-.3-3.5-2.3-3.5-4 1.8-2.5 3.7-1.4 5.5-.9-.6 1.6.4 3.3-2 4.9zm3.4-13.4c-.4-.5-.8-.2-1.2-.6-1.1-1.1.1-2.1.8-3.2-.1-1.6.2-3.3 1.4-5 1.6.8 1.7.6 2.9 2.3-.1 2.2-2.1 4.4-3.9 6.5zm-26.9 18.1c-1.8 1.1-4.1-2.3-4.4-3.7 1.3-.8 1-2.1 2-2.1 3.5.8 2 4 2.4 5.8zm-14.2-.2l-.6.6c-.2-.3-.4-.2-.6 0l-.6-.6c.3-.2.2-.4 0-.6l.6-.6c.2.3.4.2.6 0l.6.6c-.3.3-.2.4 0 .6zm32.4-35.5c-1.7-.1-3.3.4-4.7-.5-2.1-1.5-1.8-4.5-3.6-6.4.7-1.2-.6-2.3-.6-3.5-1-.6 0-1.2 0-1.7-.7-.7-.4-1.4-1.5-2 .4-2.8-.7-5.6.2-8.4-1.8-2.1-.4-4.3-3.6-6.3.6-2.2.2-4.5 3.1-6.7 1.8.5 3.5 3.2 5.3 4.6 1.1.3.1 2 .3 2.6.3.9.3 1 .3 2l-.3.9c.3.7.4 1.1.3 2-.1 1.2-.3 2.8-.2 4.4-.6 1.3.7 2.5-.2 3.8.9 1.2.9 2.3.6 3.5.7.7.4 1.4 1.5 2-.3.9-.3 1.7-.3 2.6l1.8 1.7c-.5 1.8 1.7 3.6 1.6 5.4zm-175.2 166.5c-1.4 1.5-4-.8-2.4-2.3 1.2 0 1.9 1.4 2.4 2.3zm121.3-160.6c-.8 1.1-1.5.7-2.3 1.2-.4-1.2-.4-2.3-.6-3.5.5 0 1-.4 1.4-.9l1.5 3.2zm32.1-35.8c-3.2.3-2.8-3.9-3.3-5.5 3.1-1 4.3 3.7 3.3 5.5zm-181.5 185.1c-1.5-1.3.3-3 1.7-1.8-.5.8-.5 1.8-1.7 1.8zm-2.5 3.2l-.6.6c-.8.5-2.4.5-3.2.3-1-.3-1.9-.7-2.9-1.7.3-1 .4-1.9 1.7-2.9 1.5.2 4.3 2.3 5 3.7zm155.8-162.5c-1.4.8-1.9-.4-2.3-1.7.8-.4 2.3.7 2.3 1.7zm-153.7 148.6c-.4 1.2-1.5-.1-2.3 0-.5.1-.9.9-1.4.9-.3 0-1.2-.6-1.7-.6s-1 .6-1.4.3c-1-.7-1.9.6-2.9 0-1.1-.6-.4-1.2-1.2-1.7l2.6-1.5c2.3.5 4.6-.4 7-.1-.2.9 1.4 1.8 1.3 2.7zm181.4-189.3c-1 .8-2.8-.4-2.9-1.7 1.7-1.5 2 .4 2.9 1.7zm-19.5 0c-.8-.9-2.1-1.7-2.1-2.6.9-1.1 1.7-1.5 2.6-2.1 1.3.9 2.5 1.4 2.4 2.9-.9 1.2-1.9 1.3-2.9 1.8zm-87.6 85c-1.1.1-2.1-.8-3.2-2 1.5-2.4-1.2-4.8.2-7.3 2.1 0 2.2 2.2 2.1 3.8 2.4 1.8 2.9 3.6.9 5.5zm-76.6 76.7c-2.1.8-6.5-4.1-6.8-6 2.4-.5 6 3.9 6.8 6zm122.7-135.7c1.4-.6 2.9-.4 4.4.2-.3 2.8-4 2.3-4.4-.2zm-50 48.8c-.8.4-2.1.3-2-.8 1.1-1.2 1.5-.1 2 .8zm-29.3 22.5c-.2-1.2.9-3.5 2.6-3.8.4.1.8.2 1.2.6-.4 1.4-2.6 3.1-3.8 3.2zm26-31.4c-1.8 2.8-3.7 1.7-5.5.9.4-1.2.9-2.3 2.3-3.5 1.1-.3 3.1 1.3 3.2 2.6zm-13.5 10.3c-1-1.6.5-3.3.2-4.9 1.3-1.1 2.7-3.3 4-3.5 1.5 2.8 0 5.6-.8 8.4-1.1.5-2.2-.4-3.4 0zm-3.8-3.7c-1.4-.1-2.7-.1-4.1 0-1.1-1.8-2-3.7-2.1-5.5 1.7-1.2 3.5.2 5.2-.1 2.3 1.9 3.9 3.7 1 5.6zm-67.4 51.3c-.5.7-1 .6-1.4.9-1.1-.8-.7-1.5-1.2-2.3.9-.5 2.6.2 2.6 1.4zm49.1-53.2l-.6.6c-.2-.3-.4-.2-.6 0l-.6-.6c.3-.2.2-.4 0-.6l.6-.6c.2.3.4.2.6 0l.6.6c-.3.3-.2.5 0 .6zm-61.6 54.2c-1.4-.7-4.1-2.8-3.8-4.3 2.9-4.1 9.3 2.5 3.8 4.3zm10-45.4c-1.3 1.6-2.7-1.4-4.1-2.3l-3.8-3.7c-.8-.7-1.1-1.3-.9-2-.5-.7-1.4-.4-2-.8-.9-.6-1.3-1.6-2.1-2-1.7-1-2.9-.9-4.4-1.4 1-2.3 4.3-4.7 6.3-7 1.2.2 2.3.7 3.5 0l3.8 3.7c.7 2.6-1.5 6.5 2.4 8.1 0 2.4-.5 4.9 1.3 7.4zm30 8.6c1.3 1.4 3.5 2.9 3.2 4.3-1.2 1.3-2.5.1-3.8.3-1.1-1.2.1-2.3-1.2-3.5-.5-.3-1 .5-1.4.9-.9-.5-3.2-1.6-2.4-2.9 1-1.5 2.1.5 3.2 1.4.8.2 1.6-.5 2.4-.5z" fill-rule="evenodd" clip-rule="evenodd" fill="#1073BB"/></svg>